<svg width="291" height="296" viewBox="0 0 291 296" fill="none" xmlns="http://www.w3.org/2000/svg">
<path d="M290.099 147.723C290.158 167.208 286.377 186.514 278.971 204.537C271.566 222.56 260.681 238.947 246.939 252.762C245.424 254.286 243.875 255.775 242.293 257.228C240.386 258.987 238.431 260.693 236.426 262.344C236.044 262.662 235.662 262.975 235.275 263.284C227.356 269.701 218.781 275.262 209.691 279.875C209.152 280.146 208.614 280.418 208.07 280.685C207.209 281.109 206.339 281.523 205.469 281.928C173.252 296.92 136.614 299.406 102.668 288.904C43.234 270.458 0 214.229 0 147.723C0 66.214 64.9408 0.140442 145.05 0.140442C225.159 0.140442 290.099 66.214 290.099 147.723Z" fill="#F6DB46"/>
<path d="M177.345 116.763L177.46 116.759L177.006 115.761C176.496 114.349 175.872 112.98 175.141 111.667L161.818 82.4132C161.392 81.4795 160.704 80.6903 159.836 80.1424C158.969 79.5945 157.96 79.3117 156.935 79.3288L140.061 79.6099C138.97 79.6281 137.912 79.9846 137.032 80.6301C136.152 81.2756 135.494 82.1784 135.15 83.2137L124.542 115.073C124.193 115.965 123.89 116.875 123.635 117.798L123.274 118.88L123.359 118.877C122.376 123.078 122.377 127.45 123.361 131.651C124.345 135.852 126.287 139.769 129.033 143.097C131.78 146.425 135.258 149.073 139.197 150.836C143.135 152.598 147.428 153.428 151.739 153.259C156.051 153.09 160.265 151.928 164.054 149.863C167.843 147.798 171.103 144.885 173.581 141.353C176.06 137.821 177.689 133.764 178.342 129.499C178.994 125.234 178.653 120.875 177.345 116.763H177.345Z" fill="#3F3D56"/>
<path d="M145.899 86.7641L140.589 115.79L141.188 115.899L146.498 86.8737L145.899 86.7641Z" fill="#F6DB46"/>
<path d="M152.279 86.6573L151.684 86.7867L157.952 115.62L158.547 115.491L152.279 86.6573Z" fill="#F6DB46"/>
<path d="M138.222 65.3237L159.844 64.9635C160.005 64.9608 160.161 65.0224 160.277 65.1347C160.393 65.247 160.46 65.4009 160.463 65.5624C160.465 65.7239 160.404 65.8799 160.292 65.996C160.179 66.1121 160.025 66.1789 159.864 66.1816L138.242 66.5418C138.162 66.5431 138.083 66.5287 138.009 66.4993C137.934 66.4699 137.866 66.4262 137.809 66.3706C137.751 66.3149 137.705 66.2486 137.673 66.1752C137.642 66.1018 137.624 66.0229 137.623 65.9429C137.622 65.8629 137.636 65.7834 137.666 65.709C137.695 65.6346 137.739 65.5667 137.794 65.5092C137.85 65.4517 137.916 65.4058 137.99 65.3739C138.063 65.3421 138.142 65.325 138.222 65.3237V65.3237Z" fill="#3F3D56"/>
<path d="M138.45 69.8891L160.072 69.5289C160.233 69.5262 160.389 69.5878 160.506 69.7001C160.622 69.8124 160.688 69.9663 160.691 70.1278C160.694 70.2893 160.632 70.4453 160.52 70.5614C160.408 70.6776 160.254 70.7443 160.092 70.747L138.471 71.1072C138.309 71.1099 138.153 71.0483 138.037 70.936C137.921 70.8237 137.854 70.6698 137.852 70.5083C137.849 70.3468 137.91 70.1908 138.023 70.0747C138.135 69.9585 138.289 69.8918 138.45 69.8891Z" fill="#3F3D56"/>
<path d="M138.679 74.4545L160.3 74.0943C160.462 74.0916 160.618 74.1532 160.734 74.2655C160.85 74.3778 160.917 74.5316 160.919 74.6932C160.922 74.8547 160.861 75.0107 160.748 75.1268C160.636 75.2429 160.482 75.3097 160.321 75.3124L138.699 75.6726C138.538 75.6753 138.382 75.6137 138.265 75.5014C138.149 75.389 138.083 75.2352 138.08 75.0737C138.077 74.9121 138.139 74.7561 138.251 74.64C138.363 74.5239 138.517 74.4571 138.679 74.4545V74.4545Z" fill="#3F3D56"/>
<path d="M148.96 60.7993C144.672 60.8708 141.235 63.3189 141.284 66.2675L156.815 66.0087C156.766 63.0602 153.249 60.7279 148.96 60.7993Z" fill="#3F3D56"/>
<path d="M151.35 120.076C152.198 120.134 153.001 120.477 153.628 121.049C153.788 121.183 153.946 121.322 154.104 121.462C154.605 121.985 155.219 122.386 155.899 122.636C157.387 123.042 158.856 121.866 160.096 120.661L160.521 121.098C159.158 122.422 157.524 123.711 155.738 123.224C154.967 122.952 154.27 122.506 153.701 121.918C153.548 121.783 153.394 121.647 153.239 121.518C152.73 121.096 151.747 120.439 150.873 120.78C150.51 120.957 150.188 121.206 149.925 121.511C149.721 121.726 149.501 121.924 149.266 122.104C148.786 122.445 148.217 122.636 147.628 122.653C147.04 122.671 146.46 122.514 145.961 122.202C145.781 122.083 145.608 121.953 145.443 121.815C145.172 121.546 144.835 121.354 144.465 121.258C143.948 121.185 143.477 121.555 142.979 121.945C142.508 122.404 141.905 122.703 141.255 122.802C141.233 122.803 141.211 122.804 141.189 122.804C139.975 122.824 139.205 121.61 138.729 120.687L139.27 120.408C139.917 121.663 140.541 122.235 141.223 122.193C141.745 122.093 142.225 121.84 142.603 121.466C143.179 121.014 143.776 120.546 144.549 120.654C145.031 120.759 145.473 120.997 145.826 121.341C145.974 121.466 146.129 121.582 146.29 121.69C146.686 121.933 147.145 122.054 147.61 122.041C148.075 122.027 148.526 121.878 148.907 121.612C149.116 121.45 149.312 121.273 149.494 121.081C149.814 120.713 150.209 120.417 150.651 120.212C150.874 120.126 151.111 120.08 151.35 120.076V120.076Z" fill="#F6DB46"/>
<path d="M149.647 0H149.014V60.7744H149.647V0Z" fill="#3F3D56"/>
<path d="M216.339 140.179C221.231 140.179 225.196 136.214 225.196 131.322C225.196 126.431 221.231 122.465 216.339 122.465C211.448 122.465 207.482 126.431 207.482 131.322C207.482 136.214 211.448 140.179 216.339 140.179Z" fill="#2F2E41"/>
<path d="M206.85 127.527C206.85 125.342 207.658 123.235 209.117 121.61C210.577 119.984 212.586 118.956 214.758 118.722C213.521 118.587 212.269 118.714 211.085 119.095C209.9 119.476 208.809 120.102 207.883 120.932C206.957 121.763 206.216 122.78 205.708 123.916C205.201 125.052 204.939 126.282 204.939 127.527C204.939 128.771 205.201 130.001 205.708 131.137C206.216 132.273 206.957 133.29 207.883 134.121C208.809 134.951 209.9 135.577 211.085 135.958C212.269 136.339 213.521 136.466 214.758 136.331C212.586 136.097 210.577 135.069 209.117 133.444C207.658 131.818 206.85 129.711 206.85 127.527V127.527Z" fill="#2F2E41"/>
<path d="M207.482 131.322C207.482 131.322 206.107 137.649 214.703 140.179L207.482 131.322Z" fill="#F6DB46"/>
<path d="M220.002 191.483C236.424 191.483 249.736 178.171 249.736 161.749C249.736 145.327 236.424 132.015 220.002 132.015C203.581 132.015 190.268 145.327 190.268 161.749C190.268 178.171 203.581 191.483 220.002 191.483Z" fill="#2F2E41"/>
<path d="M236.426 262.344C236.044 262.662 235.662 262.975 235.275 263.284C227.356 269.701 218.781 275.262 209.691 279.874C209.152 280.146 208.614 280.418 208.07 280.685C207.209 281.109 206.339 281.523 205.469 281.928L190.227 276.849L190.402 273.198V273.184L191.065 259.259L191.291 254.498L236.426 262.344Z" fill="#A0616A"/>
<path d="M208.07 280.685C207.209 281.109 206.339 281.523 205.469 281.928C199.515 284.712 193.374 287.077 187.091 289.006C187.059 288.914 187.041 288.818 187.036 288.72L190.227 273.124L190.402 273.198L208.07 280.685Z" fill="#2F2E41"/>
<path d="M212.58 193.295C223.455 193.295 232.271 184.479 232.271 173.605C232.271 162.73 223.455 153.914 212.58 153.914C201.705 153.914 192.889 162.73 192.889 173.605C192.889 184.479 201.705 193.295 212.58 193.295Z" fill="#A0616A"/>
<path d="M228.546 174.669C228.546 174.669 231.739 190.634 237.593 194.36L205.13 232.677L192.889 220.969L201.936 205.003C201.936 205.003 212.048 199.149 208.855 191.167L228.546 174.669Z" fill="#A0616A"/>
<path d="M267.071 227.546C261.301 236.661 254.55 245.117 246.939 252.762C246.612 245.624 245.903 239.74 244.512 237.999C244.509 237.999 244.505 237.997 244.503 237.994L227.479 232.676C227.479 232.676 231.205 197.551 240.253 195.958C240.253 195.958 241.565 196.225 243.605 196.842C250.181 198.822 264.299 204.403 266.33 216.177C266.907 219.938 267.155 223.742 267.071 227.546V227.546Z" fill="#A0616A"/>
<path d="M201.937 205.003C201.937 205.003 185.971 204.471 175.86 217.244C165.748 230.016 141.268 239.595 141.268 239.595L80.0668 263.543C80.0668 263.543 68.891 243.853 61.9727 250.771C55.0543 257.689 74.745 275.251 83.7921 273.123C92.8392 270.994 147.654 254.496 147.654 254.496L191.293 234.806L201.937 205.003Z" fill="#A0616A"/>
<path d="M244.512 237.999L242.293 257.228C240.386 258.987 238.431 260.693 236.426 262.344C236.044 262.662 235.662 262.975 235.275 263.284C219.909 258.573 195.831 259.098 191.065 259.259C190.522 259.273 190.227 259.287 190.227 259.287L189.697 248.111C184.591 246.412 182.914 242.696 182.868 238.607C182.79 231.193 188.099 222.564 188.099 222.564C189.053 221.611 196.176 208.105 197.65 205.305C197.82 204.978 197.917 204.799 197.917 204.799L204.304 203.205C204.304 203.205 204.285 203.256 204.248 203.348C203.677 204.946 198.713 219.4 207.26 219.902C215.668 220.4 233.958 196.786 236.477 193.476C236.666 193.227 236.767 193.093 236.767 193.093L243.688 196.819C243.66 196.828 243.633 196.832 243.605 196.842C239.378 198.016 235.464 208.197 235.464 208.197C224.426 227.647 244.02 237.75 244.503 237.994C244.505 237.997 244.509 237.999 244.512 237.999Z" fill="#D0CDE1"/>
<path d="M213.65 150.492C203.168 150.492 194.671 155.448 194.671 161.563C194.671 164.299 196.379 166.799 199.198 168.731L202.852 166.083L201.858 170.231C202.27 170.422 202.691 170.607 203.13 170.778L208.589 164.41V172.233C210.262 172.501 211.955 172.635 213.65 172.634C224.132 172.634 232.629 167.677 232.629 161.563C232.629 155.448 224.132 150.492 213.65 150.492Z" fill="#2F2E41"/>
<path d="M252.528 154.016C257.419 154.016 261.385 150.051 261.385 145.159C261.385 140.268 257.419 136.302 252.528 136.302C247.636 136.302 243.671 140.268 243.671 145.159C243.671 150.051 247.636 154.016 252.528 154.016Z" fill="#2F2E41"/>
<path d="M243.038 141.363C243.038 139.179 243.846 137.071 245.306 135.446C246.765 133.821 248.774 132.793 250.946 132.559C250.631 132.524 250.314 132.507 249.997 132.506C248.793 132.505 247.601 132.748 246.494 133.223C245.388 133.697 244.389 134.393 243.56 135.266C242.731 136.14 242.089 137.173 241.673 138.303C241.257 139.433 241.076 140.636 241.14 141.838C241.205 143.041 241.514 144.218 242.049 145.297C242.584 146.375 243.333 147.334 244.25 148.114C245.168 148.893 246.235 149.477 247.387 149.831C248.538 150.184 249.749 150.299 250.946 150.168C248.774 149.934 246.765 148.905 245.306 147.28C243.846 145.655 243.038 143.548 243.038 141.363V141.363Z" fill="#2F2E41"/>
<path d="M243.671 145.159C243.671 145.159 242.295 151.485 250.891 154.016L243.671 145.159Z" fill="#F6DB46"/>
<path d="M233.069 175.467C233.918 175.467 234.607 173.919 234.607 172.008C234.607 170.098 233.918 168.549 233.069 168.549C232.22 168.549 231.532 170.098 231.532 172.008C231.532 173.919 232.22 175.467 233.069 175.467Z" fill="#A0616A"/>
<path d="M63.3876 185.39L40.052 191.044L39.976 191.062L37.4393 193.359L36.7092 194.019L35.144 193.735L32.3732 193.234L34.3041 186.718L34.6661 174.288L33.3387 166.685L40.7 161.617C40.7 161.617 55.0608 160.772 63.3876 185.39Z" fill="#D0CDE1"/>
<path opacity="0.1" d="M40.052 191.044C39.7358 191.719 40.3983 191.273 40.0363 191.967L36.6573 193.053L35.144 193.735L32.3732 193.234L34.3041 186.718L34.6661 174.288L33.3387 166.685L40.7 161.617C40.7 161.617 48.6008 172.806 40.052 191.044Z" fill="black"/>
<path d="M90.9022 167.53C90.9022 167.53 60.2499 181.77 47.82 183.942C35.3902 186.114 36.4763 198.544 36.4763 198.544L106.108 187.683C106.108 187.683 103.694 176.46 90.9022 167.53Z" fill="#D0CDE1"/>
<path d="M31.7698 165.116C31.7698 165.116 37.0797 178.029 31.1664 194.079L38.0451 197.217L40.7 194.079L40.7603 193.778L33.4593 193.114C33.4593 193.114 39.4932 176.943 34.5454 165.72C34.5454 165.72 33.4593 163.306 31.7698 165.116Z" fill="#F6DB46"/>
<path d="M133.019 260.814C105.866 254.78 80.5842 267.271 80.5842 267.271L80.5154 267.209L70.4472 258.22L31.1061 194.019L40.7 194.079C67.3699 178.15 104.901 180.322 104.901 180.322C121.072 198.665 133.019 260.814 133.019 260.814Z" fill="#3F3D56"/>
<path opacity="0.1" d="M80.5154 267.209L70.4472 258.22L31.1061 194.019L40.7 194.079C40.7 194.079 78.9382 244.582 80.5154 267.209Z" fill="black"/>
<path d="M84.9341 217.116C93.1539 214.595 98.5181 208.316 96.9155 203.091C95.3129 197.866 87.3503 195.674 79.1306 198.195C70.9109 200.716 65.5466 206.996 67.1492 212.221C68.7518 217.445 76.7144 219.637 84.9341 217.116Z" fill="#D0CDE1"/>
</svg>
