<svg width="261" height="250" viewBox="0 0 261 250" fill="none" xmlns="http://www.w3.org/2000/svg">
<path d="M69.9417 171.18H87.745L131.618 152.929C131.618 152.929 162.773 139.409 160.23 165.097C157.687 190.784 153.236 225.258 153.236 225.258C153.236 225.258 139.248 218.499 131.618 220.527C123.988 222.555 129.074 179.292 129.074 179.292C129.074 179.292 66.7625 211.063 61.04 207.007C55.3175 202.951 54.0458 174.56 54.0458 174.56L69.9417 171.18Z" fill="#2F2E41"/>
<path opacity="0.1" d="M69.9417 171.18H87.745L131.618 152.929C131.618 152.929 162.773 139.409 160.23 165.097C157.687 190.784 153.236 225.258 153.236 225.258C153.236 225.258 139.248 218.499 131.618 220.527C123.988 222.555 129.074 179.292 129.074 179.292C129.074 179.292 66.7625 211.063 61.04 207.007C55.3175 202.951 54.0458 174.56 54.0458 174.56L69.9417 171.18Z" fill="black"/>
<path d="M97.991 111.907L119.537 144.817L169.768 189.432C169.768 189.432 216.183 200.923 209.825 209.035C203.467 217.147 164.681 200.923 164.681 200.923C164.681 200.923 106.82 156.309 104.913 152.929C103.005 149.549 82.0225 117.778 82.0225 117.778L97.991 111.907Z" fill="#A0616A"/>
<path opacity="0.1" d="M97.991 111.907L119.537 144.817L169.768 189.432C169.768 189.432 216.183 200.923 209.825 209.035C203.467 217.147 164.681 200.923 164.681 200.923C164.681 200.923 106.82 156.309 104.913 152.929C103.005 149.549 82.0225 117.778 82.0225 117.778L97.991 111.907Z" fill="black"/>
<path d="M85.2017 85.3314L99.19 114.398C99.19 114.398 96.0109 128.594 90.9242 129.946C85.8375 131.298 64.2192 112.371 64.2192 112.371L85.2017 85.3314Z" fill="#F6DB46"/>
<path opacity="0.1" d="M85.2017 85.3314L99.19 114.398C99.19 114.398 96.0109 128.594 90.9242 129.946C85.8375 131.298 64.2192 112.371 64.2192 112.371L85.2017 85.3314Z" fill="black"/>
<path d="M255.853 156.131L259.985 174.251C260.032 174.453 260.024 174.665 259.965 174.863L241.221 237.136C241.147 237.382 240.995 237.594 240.792 237.736C240.588 237.879 240.345 237.942 240.103 237.917C239.86 237.892 239.633 237.779 239.46 237.597C239.286 237.415 239.177 237.176 239.149 236.918L236.556 212.659C236.539 212.498 236.555 212.335 236.602 212.181L253.807 156.047C253.878 155.812 254.02 155.609 254.21 155.469C254.4 155.328 254.628 155.257 254.86 155.266C255.091 155.276 255.314 155.365 255.493 155.521C255.672 155.677 255.799 155.891 255.853 156.131Z" fill="#2F2E41"/>
<path d="M254.334 157.661L258.148 173.208L241.617 229.99L237.802 212.415L254.334 157.661Z" fill="#F2F2F2"/>
<path d="M171.039 242.158C171.675 244.186 237.166 241.482 237.802 240.806C238.356 239.959 238.825 239.053 239.201 238.102C239.798 236.75 240.345 235.398 240.345 235.398L237.802 213.51L172.947 211.063C172.947 211.063 171.325 229.612 170.995 238.102C170.912 240.245 170.912 241.752 171.039 242.158Z" fill="#2F2E41"/>
<path opacity="0.1" d="M229.536 216.471L230.807 235.398H202.195V216.471H229.536Z" fill="black"/>
<path opacity="0.1" d="M192.658 222.554L192.828 222.518L192.022 230.667H176.126V222.554H192.658Z" fill="black"/>
<path opacity="0.1" d="M171.039 242.158C171.675 244.186 237.166 241.482 237.802 240.806C238.356 239.96 238.825 239.053 239.201 238.102H170.995C170.912 240.245 170.912 241.752 171.039 242.158Z" fill="black"/>
<path d="M94.7392 75.8677C110.541 75.8677 123.352 62.2486 123.352 45.4487C123.352 28.6488 110.541 15.0298 94.7392 15.0298C78.937 15.0298 66.1267 28.6488 66.1267 45.4487C66.1267 62.2486 78.937 75.8677 94.7392 75.8677Z" fill="#A0616A"/>
<path d="M92.8317 72.4878C92.8317 72.4878 83.2942 90.0632 81.3867 99.5269C79.4792 108.991 52.7742 80.5995 52.7742 80.5995L49.2771 70.7978C49.2771 70.7978 74.3925 58.2923 72.485 48.1526C70.5775 38.013 92.8317 72.4878 92.8317 72.4878Z" fill="#A0616A"/>
<path d="M97.9184 125.214L123.988 161.717L186.299 211.063C186.299 211.063 231.443 221.203 221.27 228.638C211.097 236.074 181.848 221.879 181.848 221.879C181.848 221.879 118.901 186.052 105.548 171.18C92.1959 156.309 67.3984 131.298 67.3984 131.298L97.9184 125.214Z" fill="#A0616A"/>
<path d="M62.9476 181.996L70.5776 194.84L116.114 179.609C126.106 176.267 137.062 177.497 145.924 183.432C153.872 188.756 158.958 197.206 147.513 209.711C124.623 234.722 109.363 221.203 109.363 221.203C109.363 221.203 32.4275 259.733 19.7109 240.806C6.99421 221.879 6.3584 212.415 6.3584 212.415C6.3584 212.415 55.3176 179.968 62.9476 181.996Z" fill="#2F2E41"/>
<path d="M158.323 226.611C158.323 226.611 178.669 240.806 154.508 247.566C130.346 254.326 112.543 244.862 112.543 244.862C112.543 244.862 91.56 244.862 91.56 233.37C91.56 221.879 98.5542 220.527 98.5542 220.527L120.173 223.907C120.173 223.907 146.242 216.471 158.323 226.611Z" fill="#D0CDE1"/>
<path d="M118.211 37.7967C120.159 38.7197 122.09 39.8121 124.207 40.08C126.324 40.3479 128.735 39.5621 129.737 37.5611C130.278 36.4803 130.34 35.209 130.366 33.9849C130.442 30.273 130.19 26.2602 127.977 23.3875C126.569 21.5593 124.513 20.4068 123.056 18.623C122.012 17.345 121.317 15.7959 120.568 14.3016C117.733 8.64149 113.536 3.2017 107.703 1.56994C105.268 0.888553 102.712 0.921809 100.194 0.959606L85.5047 1.17992C83.1276 1.21557 80.7139 1.257 78.4383 1.98847C73.7102 3.50827 70.2677 7.73527 67.1149 11.7777C64.7561 14.802 62.391 17.8575 60.6208 21.3061C58.0827 26.3387 56.7993 31.9786 56.8929 37.688C56.8732 39.1523 57.0511 40.6121 57.421 42.0227C57.8537 43.3165 58.3899 44.5685 59.0235 45.765C61.7783 51.5174 63.4139 58.7024 60.3116 64.2512C65.7006 61.9108 71.0328 58.8422 74.5877 53.9413C76.178 51.7489 77.4252 49.1824 79.5446 47.5735C81.664 45.9647 85.1174 45.8251 86.4772 48.1863C86.9446 49.1415 87.1852 50.2037 87.1782 51.2804C87.2776 53.0527 87.2748 54.8934 87.9817 56.502C88.6885 58.1106 90.3722 59.4086 91.9797 58.9272C94.7481 58.0982 94.483 53.5811 96.6152 51.5292C98.2346 49.9709 100.733 50.2688 102.813 49.5614C105.237 48.7372 107.056 46.5048 108.092 44.0337C108.88 42.1555 108.868 37.2404 110.359 36.2232C112.228 34.9477 116.479 36.9756 118.211 37.7967Z" fill="#2F2E41"/>
<path d="M47.0058 67.5914C48.293 67.2262 49.6481 67.2299 50.9336 67.602C55.0151 68.7669 64.1649 71.8509 66.1267 76.5436C68.67 82.6274 77.5717 92.0911 77.5717 92.0911C77.5717 92.0911 89.6525 104.935 87.1092 113.722C84.5658 122.51 75.0283 132.65 75.0283 132.65C75.0283 132.65 77.5717 174.56 64.855 185.376C52.1383 196.192 47.0517 188.756 47.0517 198.895C47.0517 209.035 7.63001 240.806 0 221.203C0 221.203 3.815 184.7 2.54334 171.856C1.29001 159.198 3.12481 80.2211 47.0058 67.5914Z" fill="#F6DB46"/>
<path d="M67.3984 84.6554C67.3984 84.6554 106.184 115.074 99.19 127.918C99.19 127.918 75.6642 140.086 70.5775 139.41C65.4909 138.734 45.78 115.074 40.6933 113.046C35.6067 111.018 33.0633 74.5157 67.3984 84.6554Z" fill="#F6DB46"/>
</svg>
