<svg width="590" height="469" viewBox="0 0 590 469" fill="none" xmlns="http://www.w3.org/2000/svg">
<g clip-path="url(#clip0)">
<path d="M346.014 79.2587C308.682 77.961 273.121 65.9124 239.169 52.7276C205.217 39.5428 171.588 24.9334 135.15 17.9488C111.714 13.4559 84.9087 12.8214 66.0292 25.3833C47.8534 37.4953 41.9813 58.3453 38.8261 77.713C36.4496 92.282 35.0537 107.612 41.566 121.253C46.0826 130.723 54.1062 138.683 59.6495 147.784C78.9558 179.344 65.3139 218.264 44.3925 249.081C34.5864 263.54 23.1941 277.342 15.6262 292.718C8.05825 308.095 4.55115 325.738 11.1731 341.438C17.7431 357.01 33.3924 368.684 50.3395 376.903C84.7702 393.6 125.327 398.375 164.903 401.081C252.482 407.073 340.523 404.478 428.333 401.882C460.831 400.919 493.468 399.944 525.436 394.921C543.19 392.129 561.516 387.705 574.408 377.012C590.767 363.441 594.822 340.457 583.863 323.443C565.468 294.899 514.643 287.81 501.769 257.173C494.697 240.314 501.965 221.534 512.244 205.893C534.302 172.348 571.27 142.916 573.22 104.573C574.558 78.232 556.781 51.8625 529.301 39.3986C500.5 26.2888 460.549 27.9499 439.31 49.5727C417.425 71.8531 378.974 80.4007 346.014 79.2587Z" fill="#3C3B54"/>
<path d="M251.179 398.254L53.7428 397.291L34.125 351.283L103.494 346.248L91.4037 295.804L228.607 278.022L97.2239 232.354L108.83 229.598L320.092 264.059L308.457 342.781L291.827 386.044L251.179 398.254Z" fill="#F6DB46"/>
<path d="M56.7711 378.022C56.7711 378.022 68.8845 376.084 76.1525 384.643C76.1525 384.643 70.8226 388.842 59.3553 383.028L56.7711 378.022Z" fill="#F6DB46"/>
<path d="M55.5021 377.831C55.5021 377.831 47.7727 387.342 51.5797 397.931C51.5797 397.931 57.8787 395.411 58.5651 382.572L55.5021 377.831Z" fill="#F6DB46"/>
<path d="M48.5572 362.195C48.5572 362.195 53.4025 353.307 72.7838 365.748C72.7838 365.748 70.1996 371.723 61.6396 371.239C53.0795 370.754 50.8183 366.878 48.5572 362.195Z" fill="#F6DB46"/>
<path d="M47.3054 361.555C47.3054 361.555 37.2514 360.401 36.2765 383.414C36.2765 383.414 42.6505 384.735 47.1785 377.456C51.7066 370.178 49.8492 366.094 47.3054 361.555Z" fill="#F6DB46"/>
<path d="M41.4507 343.197C41.4507 343.197 47.1036 327.532 67.6155 338.675C67.6155 338.675 62.9316 353.048 43.5503 348.526L41.4507 343.197Z" fill="#F6DB46"/>
<path d="M35.1517 319.78C35.1517 319.78 45.8115 303.954 64.7083 318.627C64.7083 318.627 58.0863 333.484 36.7668 325.409L35.1517 319.78Z" fill="#F6DB46"/>
<path d="M32.8906 297.494C32.8906 297.494 45.3269 282.954 64.0391 297.494C64.0391 297.494 52.2488 310.252 32.8906 301.208V297.494Z" fill="#F6DB46"/>
<path d="M30.9524 275.848C30.9524 275.848 43.5503 260.668 61.478 275.041C61.478 275.041 47.2651 288.445 30.9524 279.401V275.848Z" fill="#F6DB46"/>
<path d="M32.083 256.63C32.083 256.63 45.35 237.09 62.1241 250.332C62.1241 250.332 47.9111 267.127 32.083 260.345V256.63Z" fill="#F6DB46"/>
<path d="M35.1517 234.183C35.1517 234.183 49.2032 214.804 65.5158 229.661C65.5158 229.661 48.8802 246.456 35.1517 237.736V234.183Z" fill="#F6DB46"/>
<path d="M39.8356 214.117C39.8356 214.117 56.4712 195.903 70.9841 203.159C70.9841 203.159 53.6505 222.503 39.1088 218.95L39.8356 214.117Z" fill="#F6DB46"/>
<path d="M45.65 195.096C45.65 195.096 64.8467 172.786 76.014 180.238C76.014 180.238 61.8703 197.541 44.2887 199.271L45.65 195.096Z" fill="#F6DB46"/>
<path d="M54.0428 173.034C54.0428 173.034 70.8457 154.82 83.1205 159.342C83.1205 159.342 68.746 178.237 51.7874 178.721L54.0428 173.034Z" fill="#F6DB46"/>
<path d="M61.6395 152.398C61.6395 152.398 80.2133 134.957 88.2889 138.025C88.2889 138.025 74.8835 157.404 60.832 156.274L61.6395 152.398Z" fill="#F6DB46"/>
<path d="M69.0691 133.342C69.0691 133.342 85.0587 112.503 93.786 114.118C93.786 114.118 84.0896 132.696 69.0691 135.458V133.342Z" fill="#F6DB46"/>
<path d="M77.1331 107.647C77.1331 107.647 91.2653 91.6764 98.9025 91.711C98.9025 91.711 87.7467 113.051 76.5505 112.855L77.1331 107.647Z" fill="#F6DB46"/>
<path d="M81.9092 90.5401L95.5627 57.2725C95.5627 57.2725 96.2433 87.3449 80.1729 96.7115L81.9092 90.5401Z" fill="#F6DB46"/>
<path d="M87.4525 53.8523C87.4525 53.8523 89.7136 26.0697 88.26 23.8087C88.26 23.8087 98.0199 46.9081 87.3602 66.1258L87.4525 53.8523Z" fill="#F6DB46"/>
<path d="M40.92 342.827C40.92 342.827 26.7647 334.055 17.5989 355.516C17.5989 355.516 30.1968 363.879 42.587 348.301L40.92 342.827Z" fill="#F6DB46"/>
<path d="M34.696 318.886C34.696 318.886 17.3336 310.967 8.91195 333.374C8.91195 333.374 22.3231 342.603 36.2765 324.55L34.696 318.886Z" fill="#F6DB46"/>
<path d="M32.083 298.826C32.083 298.826 19.6467 284.286 0.934456 298.826C0.934456 298.826 12.7248 311.584 32.083 302.541V298.826Z" fill="#F6DB46"/>
<path d="M30.5256 275.848C30.5256 275.848 17.9277 260.668 0 275.041C0 275.041 14.213 288.445 30.5256 279.401V275.848Z" fill="#F6DB46"/>
<path d="M32.083 257.184C32.083 257.184 23.2461 235.296 4.03778 244.709C4.03778 244.709 14.4206 264.117 31.2985 260.818L32.083 257.184Z" fill="#F6DB46"/>
<path d="M36.265 234.073C36.265 234.073 27.48 211.804 8.00057 222.128C8.00057 222.128 19.9293 242.54 35.3998 237.511L36.265 234.073Z" fill="#F6DB46"/>
<path d="M41.7102 214.227C41.7102 214.227 38.2493 189.812 22.0982 187.627C22.0982 187.627 25.5245 213.373 39.5356 218.628L41.7102 214.227Z" fill="#F6DB46"/>
<path d="M46.0595 195.142C46.0595 195.142 44.7097 165.727 31.3562 164.7C31.3562 164.7 31.8062 187.027 44.554 199.306L46.0595 195.142Z" fill="#F6DB46"/>
<path d="M55.4271 172.21C55.4271 172.21 51.447 147.749 38.6992 144.762C38.6992 144.762 40.2797 168.449 54.1639 178.214L55.4271 172.21Z" fill="#F6DB46"/>
<path d="M63.1508 152.6C63.1508 152.6 63.0182 127.118 55.231 123.375C55.231 123.375 50.403 146.446 60.8954 155.853L63.1508 152.6Z" fill="#F6DB46"/>
<path d="M69.6632 133.053C69.6632 133.053 68.573 106.816 60.509 103.119C60.509 103.119 57.7517 123.883 68.4576 134.772L69.6632 133.053Z" fill="#F6DB46"/>
<path d="M78.2579 109.741C78.2579 109.741 78.2117 88.4003 72.455 83.394C72.455 83.394 66.7329 106.77 75.2526 114.032L78.2579 109.741Z" fill="#F6DB46"/>
<path d="M81.2343 89.4904L75.6333 53.9734C75.6333 53.9734 68.025 83.0768 81.4996 95.904L81.2343 89.4904Z" fill="#F6DB46"/>
<path d="M82.3245 54.1868C82.3245 54.1868 67.95 30.3089 68.2442 27.6558C68.2442 27.6558 69.7728 52.6815 87.8563 65.1453L82.3245 54.1868Z" fill="#F6DB46"/>
<path d="M84.0088 47.133C84.0088 47.133 70.4419 13.2194 64.3045 10.474C64.3045 10.474 83.6858 20.3251 85.1394 46.164L84.0088 47.133Z" fill="#F6DB46"/>
<path d="M76.4813 113.057L75.5526 112.774C87.0025 75.4405 89.8578 51.6375 83.5993 45.668L84.2626 44.9644C90.9019 51.2626 88.2081 74.8061 76.4813 113.057Z" fill="#444053"/>
<path d="M44.952 200.471L43.5791 199.981C44.7962 196.561 46.1056 193.088 47.4785 189.668C59.4303 159.884 69.6055 132.177 76.1294 110.906L77.3234 110.329C70.788 131.64 60.7916 160.409 48.8283 190.234C47.4612 193.59 46.1576 197.045 44.952 200.471Z" fill="#444053"/>
<path d="M73.8394 405.96C73.6548 405.758 55.0983 384.862 42.1602 349.189C34.5791 328.304 30.3601 306.349 29.6604 284.142C28.772 256.382 34.598 225.387 44.5771 197.23L45.6615 198.498C23.2576 261.694 32.158 315.847 43.9656 348.457C56.7654 383.806 75.1142 404.472 75.293 404.679L73.8394 405.96Z" fill="#444053"/>
<path d="M363.821 361.595C363.821 361.595 350.744 377.554 361.127 401.68L256.722 446.956L246.702 449.056L242.088 428.869L245.174 403.393V389.47L363.821 361.595Z" fill="#D5D6DB"/>
<path d="M34.125 351.283L178.631 324.942L370.108 355.441L251.179 398.254L34.125 351.283Z" fill="#F6DB46"/>
<path d="M34.125 351.283L178.631 324.942L370.108 355.441L251.179 398.254L34.125 351.283Z" fill="#F6DB46"/>
<path d="M34.125 351.277C34.125 351.277 20.61 376.88 36.1842 400.527L250.475 446.956C250.475 446.956 237.173 426.562 251.161 398.254L34.125 351.277Z" fill="#F6DB46"/>
<path opacity="0.1" d="M34.125 351.277C34.125 351.277 20.61 376.88 36.1842 400.527L250.475 446.956C250.475 446.956 237.173 426.562 251.161 398.254L34.125 351.277Z" fill="black"/>
<path opacity="0.1" d="M40.5104 360.153C40.5104 360.153 32.7867 378.887 40.5104 391.01V360.153Z" fill="black"/>
<path d="M250.475 446.956L370.108 395.913C370.108 395.913 376.8 397.355 372.473 402.257C368.147 407.16 252.782 451.859 252.782 451.859L36.1842 400.527L250.475 446.956Z" fill="#F6DB46"/>
<path opacity="0.1" d="M250.475 446.956L370.108 395.913C370.108 395.913 376.8 397.355 372.473 402.257C368.147 407.16 252.782 451.859 252.782 451.859L36.1842 400.527L250.475 446.956Z" fill="black"/>
<path opacity="0.1" d="M240.669 403.411C240.669 403.411 229.132 417.253 240.669 438.016V403.411Z" fill="black"/>
<path opacity="0.1" d="M296.521 403.177L244.775 420.439L244.957 420.986L296.704 403.724L296.521 403.177Z" fill="black"/>
<path opacity="0.1" d="M306.886 401.459L244.758 425.081L244.963 425.62L307.091 401.998L306.886 401.459Z" fill="black"/>
<path opacity="0.1" d="M316.404 401.376L245.105 430.557L245.324 431.09L316.623 401.91L316.404 401.376Z" fill="black"/>
<path opacity="0.1" d="M326.755 398.877L245.937 435.381L246.175 435.906L326.993 399.403L326.755 398.877Z" fill="black"/>
<path opacity="0.1" d="M335.451 398.889L246.577 437.732L246.808 438.26L335.682 399.418L335.451 398.889Z" fill="black"/>
<path opacity="0.1" d="M354.472 395.659L247.917 441.676L248.146 442.206L354.701 396.189L354.472 395.659Z" fill="black"/>
<path opacity="0.3" d="M87.8101 354.097L189.331 332.757L251.179 344.581L167.989 371.4L87.8101 354.097Z" fill="white"/>
<path d="M370.108 355.441C370.108 355.441 375.358 357.558 372.277 360.828C369.197 364.099 251.161 398.254 251.161 398.254L370.108 355.441Z" fill="#F6DB46"/>
<path d="M421.094 306.122C421.094 306.122 408.023 322.076 418.406 346.207L314.001 391.483L303.981 393.594L299.367 373.407L302.499 347.938V333.997L421.094 306.122Z" fill="#D5D6DB"/>
<path d="M91.4037 295.804L235.904 269.469L427.387 299.968L308.457 342.781L91.4037 295.804Z" fill="#3A3768"/>
<path d="M91.3807 295.804C91.3807 295.804 77.8599 321.407 93.4341 345.054L307.725 391.483C307.725 391.483 294.429 371.072 308.434 342.776L91.3807 295.804Z" fill="#3A3768"/>
<path opacity="0.1" d="M91.3807 295.804C91.3807 295.804 77.8599 321.407 93.4341 345.054L307.725 391.483C307.725 391.483 294.429 371.072 308.434 342.776L240.669 328.109L91.3807 295.804Z" fill="black"/>
<path opacity="0.1" d="M97.7834 304.68C97.7834 304.68 90.0655 323.408 97.7834 335.537V304.68Z" fill="black"/>
<path d="M307.748 391.483L427.387 340.44C427.387 340.44 434.073 341.882 429.746 346.784C425.42 351.687 310.055 396.386 310.055 396.386L93.4572 345.054L307.748 391.483Z" fill="#3A3768"/>
<path opacity="0.1" d="M307.748 391.483L427.387 340.44C427.387 340.44 434.073 341.882 429.746 346.784C425.42 351.687 310.055 396.386 310.055 396.386L93.4572 345.054L307.748 391.483Z" fill="black"/>
<path opacity="0.1" d="M297.942 347.938C297.942 347.938 286.405 361.78 297.942 382.543V347.938Z" fill="black"/>
<path opacity="0.1" d="M353.799 347.71L302.052 364.972L302.235 365.519L353.981 348.257L353.799 347.71Z" fill="black"/>
<path opacity="0.1" d="M364.17 345.989L302.043 369.611L302.248 370.15L364.375 346.528L364.17 345.989Z" fill="black"/>
<path opacity="0.1" d="M373.681 345.898L302.381 375.079L302.6 375.613L373.899 346.432L373.681 345.898Z" fill="black"/>
<path opacity="0.1" d="M384.038 343.401L303.22 379.904L303.458 380.43L384.276 343.926L384.038 343.401Z" fill="black"/>
<path opacity="0.1" d="M392.726 343.405L303.852 382.248L304.083 382.776L392.957 343.934L392.726 343.405Z" fill="black"/>
<path opacity="0.1" d="M411.751 340.175L305.196 386.192L305.425 386.722L411.98 340.705L411.751 340.175Z" fill="black"/>
<path opacity="0.45" d="M145.089 298.624L246.61 277.284L308.457 289.108L225.268 315.927L145.089 298.624Z" fill="white"/>
<path d="M427.387 299.968C427.387 299.968 432.63 302.085 429.556 305.35C426.482 308.614 308.457 342.776 308.457 342.776L427.387 299.968Z" fill="#3A3768"/>
<path d="M426.516 242.661C426.516 242.661 413.44 271.309 423.822 295.435L319.417 328.022L309.421 330.139L304.806 309.952L307.892 284.476V270.536L426.516 242.661Z" fill="#D5D6DB"/>
<path d="M96.8432 232.349L241.349 206.008L432.832 236.507L313.897 279.32L96.8432 232.349Z" fill="#F6DB46"/>
<path d="M96.8432 232.343C96.8432 232.343 83.3051 257.945 98.8794 281.593L313.17 328.022C313.17 328.022 299.868 307.61 313.874 279.32L96.8432 232.343Z" fill="#F6DB46"/>
<path opacity="0.1" d="M96.8432 232.343C96.8432 232.343 83.3051 257.945 98.8794 281.593L313.17 328.022C313.17 328.022 299.868 307.61 313.874 279.32L96.8432 232.343Z" fill="black"/>
<path opacity="0.1" d="M103.229 241.219C103.229 241.219 95.505 259.953 103.229 272.076V241.219Z" fill="black"/>
<path d="M313.193 328.022L432.827 289.667C432.827 289.667 439.518 291.109 435.192 296.012C430.865 300.914 315.5 332.925 315.5 332.925L98.9025 281.593L313.193 328.022Z" fill="#F6DB46"/>
<path opacity="0.1" d="M313.193 328.022L432.827 289.667C432.827 289.667 439.518 291.109 435.192 296.012C430.865 300.914 315.5 332.925 315.5 332.925L98.9025 281.593L313.193 328.022Z" fill="black"/>
<path opacity="0.1" d="M303.387 284.476C303.387 284.476 291.85 298.319 303.387 319.082V284.476Z" fill="black"/>
<path opacity="0.1" d="M359.246 284.247L307.499 301.509L307.682 302.057L359.428 284.794L359.246 284.247Z" fill="black"/>
<path opacity="0.1" d="M369.613 282.53L307.486 306.152L307.691 306.691L369.818 283.069L369.613 282.53Z" fill="black"/>
<path opacity="0.1" d="M379.118 282.442L307.819 311.622L308.037 312.156L379.337 282.976L379.118 282.442Z" fill="black"/>
<path opacity="0.1" d="M389.484 279.939L308.666 316.443L308.903 316.968L389.721 280.465L389.484 279.939Z" fill="black"/>
<path opacity="0.1" d="M398.174 279.949L309.3 318.792L309.531 319.32L398.405 280.478L398.174 279.949Z" fill="black"/>
<path opacity="0.1" d="M417.198 276.723L310.643 322.74L310.872 323.27L417.427 277.252L417.198 276.723Z" fill="black"/>
<path opacity="0.3" d="M150.528 235.163L252.05 213.823L313.897 225.647L230.707 252.466L150.528 235.163Z" fill="white"/>
<path d="M432.827 236.507C432.827 236.507 438.076 238.624 434.995 241.894C431.915 245.164 313.897 279.32 313.897 279.32L432.827 236.507Z" fill="#F6DB46"/>
<path d="M179.058 61.4252C179.058 61.4252 157.139 60.1044 159.7 75.4809C159.7 75.4809 159.186 78.1974 161.65 79.4317C161.65 79.4317 161.69 78.2782 163.899 78.6761C164.688 78.8116 165.489 78.8503 166.287 78.7915C167.363 78.7179 168.385 78.2969 169.2 77.5918C169.2 77.5918 175.366 75.0425 177.766 64.9607C177.766 64.9607 179.543 62.7633 179.497 62.198L175.782 63.7784C175.782 63.7784 177.045 66.4488 176.053 68.6693C176.053 68.6693 175.932 63.8764 175.216 63.986C175.072 63.986 173.296 64.9146 173.296 64.9146C173.296 64.9146 175.47 69.5691 173.826 72.9489C173.826 72.9489 174.449 67.2159 172.615 65.2491L170.008 66.7718C170.008 66.7718 172.552 71.5762 170.827 75.4982C170.827 75.4982 171.271 69.4826 169.46 67.1409L167.095 68.9865C167.095 68.9865 169.489 73.7218 168.029 76.9747C168.029 76.9747 167.839 69.9728 166.587 69.4422C166.587 69.4422 164.516 71.2647 164.205 72.0145C164.205 72.0145 165.843 75.4751 164.822 77.2688C164.822 77.2688 164.205 72.6028 163.668 72.5798C163.668 72.5798 161.609 75.6712 161.396 77.7706C161.495 75.8134 162.106 73.9164 163.167 72.2683C161.98 72.4928 160.885 73.0603 160.017 73.9006C160.017 73.9006 160.334 71.7146 163.68 71.5243C163.68 71.5243 165.382 69.1769 165.837 69.0384C165.837 69.0384 162.509 68.7558 160.496 69.6498C160.496 69.6498 162.273 67.5908 166.443 68.4963L168.75 66.593C168.75 66.593 164.378 66.0162 162.521 66.6564C162.521 66.6564 164.661 64.8338 169.379 66.1604L171.923 64.6435C171.923 64.6435 168.191 63.8418 165.97 64.1302C165.97 64.1302 168.312 62.8671 172.667 64.234L174.478 63.4208C174.478 63.4208 171.75 62.8844 170.948 62.7979C170.146 62.7114 170.106 62.4922 170.106 62.4922C171.838 62.2078 173.614 62.4074 175.24 63.069C175.24 63.069 179.133 61.6674 179.058 61.4252Z" fill="#F6DB46"/>
<path opacity="0.1" d="M487.429 124.627C487.429 124.627 465.51 123.306 468.071 138.682C468.071 138.682 467.557 141.399 470.02 142.633C470.02 142.633 470.061 141.48 472.27 141.878C473.059 142.01 473.86 142.049 474.658 141.993C475.724 141.915 476.735 141.494 477.542 140.793C477.542 140.793 483.714 138.244 486.108 128.162C486.108 128.162 487.885 125.965 487.838 125.4L484.135 126.98C484.135 126.98 485.398 129.65 484.406 131.871C484.406 131.871 484.285 127.078 483.576 127.188C483.432 127.188 481.649 128.116 481.649 128.116C481.649 128.116 483.824 132.771 482.186 136.15C482.186 136.15 482.809 130.417 480.969 128.451L478.361 129.973C478.361 129.973 480.905 134.778 479.18 138.7C479.18 138.7 479.624 132.684 477.813 130.342L475.454 132.188C475.454 132.188 477.842 136.923 476.383 140.176C476.383 140.176 476.192 133.174 474.941 132.644C474.941 132.644 472.876 134.466 472.558 135.216C472.558 135.216 474.197 138.677 473.181 140.47C473.181 140.47 472.558 135.804 472.028 135.781C472.028 135.781 469.968 138.873 469.755 140.972C469.855 139.014 470.468 137.117 471.532 135.47C470.343 135.695 469.247 136.262 468.376 137.102C468.376 137.102 468.699 134.916 472.039 134.726C472.039 134.726 473.741 132.378 474.197 132.234C474.197 132.234 470.874 131.957 468.855 132.851C468.855 132.851 470.632 130.792 474.802 131.698L477.11 129.795C477.11 129.795 472.731 129.218 470.88 129.858C470.88 129.858 473.014 128.035 477.738 129.362L480.276 127.845C480.276 127.845 476.544 127.043 474.323 127.332C474.323 127.332 476.665 126.069 481.02 127.436L482.837 126.622C482.837 126.622 480.103 126.086 479.301 125.999C478.5 125.913 478.459 125.694 478.459 125.694C480.191 125.406 481.969 125.605 483.593 126.271C483.593 126.271 487.498 124.869 487.429 124.627Z" fill="#F6DB46"/>
<path opacity="0.1" d="M215.975 156.418C215.975 156.418 206.423 136.618 194.263 146.376C194.263 146.376 191.639 147.253 191.766 150.004C191.766 150.004 192.775 149.479 193.496 151.602C193.765 152.352 194.122 153.068 194.557 153.736C195.148 154.641 196.016 155.329 197.032 155.697C197.032 155.697 202.264 159.838 212.237 157.012C212.237 157.012 215.023 157.491 215.479 157.156L212.295 154.693C212.295 154.693 210.564 157.099 208.153 157.312C208.153 157.312 212.283 154.872 211.839 154.307C211.747 154.192 210.109 153.078 210.109 153.078C210.109 153.078 207.103 157.248 203.354 157.462C203.354 157.462 208.661 155.212 209.48 152.646L206.884 151.112C206.884 151.112 203.925 155.68 199.662 156.083C199.662 156.083 205.131 153.54 206.29 150.818L203.533 149.664C203.533 149.664 200.562 154.059 197.009 154.376C197.009 154.376 203.031 150.794 202.881 149.439C202.881 149.439 200.28 148.528 199.472 148.614C199.472 148.614 197.269 151.723 195.192 151.723C195.192 151.723 198.959 148.903 198.728 148.447C198.728 148.447 195.025 148.159 193.075 149.024C194.832 148.151 196.787 147.753 198.745 147.87C197.968 146.944 196.938 146.264 195.78 145.915C195.78 145.915 197.845 145.131 199.639 147.951C199.639 147.951 202.523 148.291 202.864 148.62C202.864 148.62 201.485 145.586 199.726 144.266C199.726 144.266 202.391 144.802 203.608 148.88L206.405 149.987C206.405 149.987 204.796 145.88 203.314 144.583C203.314 144.583 205.944 145.557 207.092 150.35L209.653 151.827C209.653 151.827 208.54 148.176 207.201 146.382C207.201 146.382 209.445 147.813 210.374 152.277L211.972 153.465C211.972 153.465 211.107 150.818 210.818 150.079C210.53 149.341 210.674 149.191 210.674 149.191C211.771 150.56 212.466 152.208 212.681 153.949C212.681 153.949 215.767 156.591 215.975 156.418Z" fill="#F6DB46"/>
<path opacity="0.1" d="M437.349 96.6538C437.349 96.6538 427.802 76.8536 415.637 86.6124C415.637 86.6124 413.018 87.4891 413.14 90.2402C413.14 90.2402 414.155 89.7211 414.87 91.8378C415.139 92.5912 415.497 93.3096 415.937 93.9776C416.525 94.8808 417.392 95.5673 418.406 95.9329C418.406 95.9329 423.644 100.074 433.611 97.2536C433.611 97.2536 436.397 97.7266 436.859 97.3921L433.692 94.9235C433.692 94.9235 431.961 97.3344 429.556 97.5478C429.556 97.5478 433.68 95.1023 433.236 94.5371C433.144 94.4217 431.506 93.3086 431.506 93.3086C431.506 93.3086 428.506 97.4786 424.751 97.692C424.751 97.692 430.064 95.4426 430.883 92.8818L428.247 91.3591C428.247 91.3591 425.293 95.9213 421.025 96.3308C421.025 96.3308 426.493 93.7815 427.658 91.0592L424.895 89.9057C424.895 89.9057 421.925 94.3064 418.377 94.6178C418.377 94.6178 424.393 91.0361 424.243 89.6865C424.243 89.6865 421.648 88.7695 420.84 88.8618C420.84 88.8618 418.637 91.9647 416.554 91.9647C416.554 91.9647 420.327 89.1444 420.096 88.6887C420.096 88.6887 416.393 88.4003 414.437 89.2655C416.194 88.3921 418.149 87.9944 420.108 88.112C419.334 87.185 418.305 86.5053 417.149 86.1567C417.149 86.1567 419.214 85.3723 421.007 88.1927C421.007 88.1927 423.892 88.5388 424.232 88.8675C424.232 88.8675 422.853 85.828 421.088 84.5072C421.088 84.5072 423.753 85.0494 424.97 89.1501L427.774 90.2575C427.774 90.2575 426.164 86.1452 424.682 84.8475C424.682 84.8475 427.312 85.8222 428.454 90.6151L431.021 92.0916C431.021 92.0916 429.902 88.4465 428.564 86.647C428.564 86.647 430.813 88.0774 431.736 92.5415L433.334 93.7296C433.334 93.7296 432.475 91.0823 432.181 90.344C431.886 89.6058 432.036 89.4616 432.036 89.4616C433.131 90.8322 433.823 92.4793 434.038 94.2199C434.038 94.2199 437.17 96.8384 437.349 96.6538Z" fill="#F6DB46"/>
<path opacity="0.1" d="M467.857 194.594C467.857 194.594 458.311 174.788 446.128 184.547C446.128 184.547 443.509 185.423 443.631 188.174C443.631 188.174 444.646 187.655 445.361 189.772C445.628 190.525 445.984 191.244 446.422 191.912C447.01 192.815 447.877 193.502 448.891 193.867C448.891 193.867 454.129 198.014 464.102 195.188C464.102 195.188 466.882 195.667 467.344 195.326L464.16 192.864C464.16 192.864 462.429 195.274 460.018 195.488C460.018 195.488 464.143 193.042 463.698 192.477C463.606 192.362 461.968 191.249 461.968 191.249C461.968 191.249 458.968 195.419 455.213 195.638C455.213 195.638 460.526 193.383 461.345 190.822L458.743 189.288C458.743 189.288 455.79 193.856 451.522 194.259C451.522 194.259 456.99 191.71 458.155 188.988L455.392 187.834C455.392 187.834 452.421 192.229 448.874 192.546C448.874 192.546 454.896 188.965 454.746 187.609C454.746 187.609 452.145 186.692 451.337 186.784C451.337 186.784 449.133 189.887 447.051 189.887C447.051 189.887 450.824 187.067 450.593 186.611C450.593 186.611 446.89 186.323 444.934 187.188C446.693 186.315 448.65 185.918 450.61 186.035C449.835 185.106 448.804 184.426 447.645 184.079C447.645 184.079 449.71 183.289 451.504 186.115C451.504 186.115 454.388 186.456 454.729 186.784C454.729 186.784 453.35 183.751 451.591 182.424C451.591 182.424 454.256 182.966 455.473 187.067L458.27 188.174C458.27 188.174 456.661 184.062 455.179 182.77C455.179 182.77 457.809 183.739 458.951 188.538L461.518 190.009C461.518 190.009 460.399 186.363 459.061 184.564C459.061 184.564 461.31 185.994 462.239 190.464L463.837 191.618C463.837 191.618 462.972 188.97 462.683 188.232C462.395 187.494 462.539 187.35 462.539 187.35C463.636 188.719 464.329 190.367 464.541 192.108C464.541 192.108 467.678 194.767 467.857 194.594Z" fill="#F6DB46"/>
<path opacity="0.1" d="M116.49 452.274C123.814 452.274 129.751 451.61 129.751 450.792C129.751 449.973 123.814 449.309 116.49 449.309C109.166 449.309 103.229 449.973 103.229 450.792C103.229 451.61 109.166 452.274 116.49 452.274Z" fill="#F6DB46"/>
<path opacity="0.1" d="M29.5565 427.081C36.8805 427.081 42.8177 426.417 42.8177 425.599C42.8177 424.78 36.8805 424.116 29.5565 424.116C22.2326 424.116 16.2953 424.78 16.2953 425.599C16.2953 426.417 22.2326 427.081 29.5565 427.081Z" fill="#F6DB46"/>
<path opacity="0.1" d="M182.756 469.006C190.08 469.006 196.017 468.342 196.017 467.523C196.017 466.705 190.08 466.041 182.756 466.041C175.432 466.041 169.494 466.705 169.494 467.523C169.494 468.342 175.432 469.006 182.756 469.006Z" fill="#F6DB46"/>
<path opacity="0.1" d="M522.333 432.56C529.657 432.56 535.594 431.897 535.594 431.078C535.594 430.259 529.657 429.596 522.333 429.596C515.009 429.596 509.071 430.259 509.071 431.078C509.071 431.897 515.009 432.56 522.333 432.56Z" fill="#F6DB46"/>
<path opacity="0.1" d="M411.98 425.368C419.304 425.368 425.241 424.704 425.241 423.886C425.241 423.067 419.304 422.403 411.98 422.403C404.656 422.403 398.719 423.067 398.719 423.886C398.719 424.704 404.656 425.368 411.98 425.368Z" fill="#F6DB46"/>
<path opacity="0.1" d="M340.592 460.447C349.254 460.447 356.276 459.241 356.276 457.753C356.276 456.266 349.254 455.06 340.592 455.06C331.93 455.06 324.908 456.266 324.908 457.753C324.908 459.241 331.93 460.447 340.592 460.447Z" fill="#F6DB46"/>
<path d="M347.589 430.68C347.589 430.68 325.751 441.961 337.033 455.25C337.033 455.25 338.095 458.134 341.163 457.932C341.163 457.932 340.552 456.813 342.894 455.919C343.727 455.597 344.519 455.177 345.253 454.667C346.245 453.982 346.986 452.992 347.364 451.847C347.364 451.847 351.829 445.872 348.368 434.815C348.368 434.815 348.818 431.689 348.426 431.182L345.772 434.821C345.772 434.821 348.512 436.661 348.829 439.366C348.829 439.366 345.945 434.827 345.368 435.329C345.241 435.432 344.053 437.318 344.053 437.318C344.053 437.318 348.806 440.543 349.158 444.73C349.158 444.73 346.482 438.864 343.592 438.028L341.936 440.981C341.936 440.981 347.128 444.142 347.705 448.894C347.705 448.894 344.688 442.867 341.607 441.65L340.39 444.77C340.39 444.77 345.397 447.954 345.859 451.911C345.859 451.911 341.671 445.295 340.165 445.503C340.165 445.503 339.219 448.433 339.346 449.338C339.346 449.338 342.882 451.703 342.946 454.027C342.946 454.027 339.681 449.903 339.179 450.174C339.179 450.174 338.971 454.321 339.975 456.478C339.975 456.478 338.245 453.399 338.527 450.174C337.516 451.069 336.788 452.24 336.433 453.543C336.433 453.543 335.493 451.265 338.591 449.165C338.591 449.165 338.885 445.941 339.242 445.543C339.242 445.543 335.891 447.181 334.466 449.188C334.466 449.188 334.991 446.195 339.537 444.707L340.69 441.546C340.69 441.546 336.145 443.473 334.743 445.168C334.743 445.168 335.753 442.198 341.048 440.773L342.617 437.889C342.617 437.889 338.579 439.251 336.606 440.773C336.606 440.773 338.135 438.218 343.101 437.042L344.376 435.225C344.376 435.225 341.446 436.269 340.627 436.644C339.808 437.019 339.646 436.834 339.646 436.834C341.144 435.568 342.962 434.741 344.901 434.446C344.901 434.446 347.791 430.876 347.589 430.68Z" fill="#F6DB46"/>
<path d="M412.407 217.607C408.635 207.358 387.869 206.394 378.859 209.007C372.456 210.87 358.958 212.969 351.748 214.025L351.281 213.581C352.215 213.304 352.238 212.623 352.123 211.614C352.056 210.284 352.075 208.951 352.181 207.623C356.599 208.996 360.533 205.748 360.533 205.748C365.725 203.441 364.329 193.567 365.321 190.868C366.065 188.849 366.867 176.956 367.224 171.027H367.299L367.34 169.037C367.392 168.178 367.415 167.676 367.415 167.676C367.415 167.676 367.922 153.176 368.914 150.241C369.837 147.542 370.587 133.941 370.703 131.784C370.703 131.6 370.703 131.502 370.703 131.502L370.628 130.244C370.679 129.327 370.703 128.307 370.697 127.234C370.697 122.302 370.183 116.091 370.12 115.087C370.12 114.943 370.12 114.77 370.12 114.562C370.16 112.457 369.895 101.914 360.925 97.9285C357.62 96.4519 353.646 94.6928 349.798 92.9798C348.806 84.4149 346.539 75.8961 346.735 67.2678C346.735 65.9701 346.851 64.6723 346.978 63.3804C346.978 63.7553 346.937 64.1359 346.932 64.5339C346.932 65.3702 346.932 66.2123 346.932 67.0486C347.272 56.2574 351.35 45.4085 350.969 34.848C350.935 35.8804 350.86 36.9185 350.762 37.9567C350.961 34.3847 350.587 30.8039 349.654 27.3501C349.308 26.1331 348.841 24.8757 347.843 24.0625C346.9 23.4076 345.818 22.9792 344.682 22.8109C341.952 22.1123 339.179 21.596 336.381 21.2652C335.956 19.9639 335.325 18.7391 334.513 17.6374C328.664 9.60885 320 2.0648 309.755 0.334509C304.616 -0.530634 298.703 0.190318 295.208 3.86429C294.843 4.18704 294.5 4.53388 294.181 4.90247C292.3 7.14607 291.493 10.0933 289.566 12.3312C289.439 12.4811 289.295 12.6195 289.157 12.7637C285.384 16.1378 279.506 16.8414 275.313 19.8694C274.574 20.413 273.881 21.0168 273.242 21.6747C271.552 23.349 270.037 25.1906 268.72 27.1713C266.834 29.8244 264.896 32.5871 264.296 35.7535C263.09 42.0979 267.41 48.1135 268.212 54.4983C270 68.7847 254.19 81.4619 257.183 95.558C257.982 99.0209 259.746 102.187 262.271 104.688C256.105 110.271 250.856 115.687 250.856 115.687V116.01H249.881L249.979 117.163H249.881L250.417 123.421L249.881 132.534C249.881 132.534 249.881 132.632 249.881 132.817V132.863V133.111C249.881 133.111 249.881 133.209 249.881 133.394H249.915C250.094 136.733 250.804 148.741 251.646 151.273C252.638 154.209 253.14 168.709 253.14 168.709C253.14 168.709 254.236 189.201 255.239 191.912C256.243 194.623 254.818 204.468 260.027 206.792C261.551 207.961 263.355 208.709 265.259 208.961C264.994 211.118 265.161 212.681 266.02 213.171C266.388 213.388 266.805 213.507 267.232 213.517C266.878 214.041 266.564 214.591 266.291 215.161C264.224 214.945 262.193 214.467 260.246 213.737C254.651 211.429 236.083 206.239 230.69 209.89C225.296 213.54 212.318 216.851 218.311 231.547C224.304 246.243 227.096 246.612 227.096 246.612C228.941 247.951 230.559 249.577 231.89 251.428C233.689 254.133 250.458 260.322 254.651 260.322C256.433 260.294 258.216 260.383 259.987 260.587C259.987 260.587 255.436 264.578 256.041 266.897C256.647 269.215 254.657 287.776 254.657 287.776C254.657 287.776 259.271 292.424 261.244 286.328L261.313 286.42C261.683 286.922 263.678 289.189 267.434 286.328C268.97 285.162 270.603 284.128 272.313 283.236L290.495 280.664C292.391 280.546 294.291 280.532 296.188 280.624C299.072 280.86 301.905 279.153 303.687 277.832C307.454 279.263 311.688 280.826 313.701 281.397C317.785 282.55 336.555 287.585 340.944 286.011C341.857 285.648 342.668 285.07 343.309 284.326L347.497 284.459L345.536 284.851C345.536 284.851 349.354 284.915 354.546 284.984L354.326 285.111L360.839 285.053C370.368 285.14 381.074 285.169 382.481 284.851C384.685 284.361 396.135 284.707 399.509 284.851H400.449C400.449 284.851 413.03 282.342 407.839 269.579C403.847 259.774 391.578 256.924 386.133 256.14C387.667 255.834 388.988 255.598 389.865 255.46C393.666 254.883 401.049 251.422 401.649 250.24C402.249 249.057 408.438 245.626 410.036 243.67C411.634 241.715 416.197 227.856 412.407 217.607ZM308.204 246.289L307.586 246.491L307.171 246.629L306.375 247.414C305.74 246.987 305.06 246.537 304.35 246.076C305.602 246.151 306.888 246.226 308.204 246.289Z" fill="url(#paint0_linear)"/>
<path d="M344.982 185.475C344.982 185.475 353.807 208.546 358.826 206.239C363.844 203.932 362.483 194.127 363.44 191.439C364.398 188.751 365.459 168.368 365.459 168.368C365.459 168.368 365.944 153.949 366.901 151.031C367.79 148.349 368.511 134.824 368.632 132.696C368.632 132.511 368.632 132.413 368.632 132.413L367.68 115.687L362.292 114.343L349.798 118.957L348.068 128.837L347.393 132.696L347.105 134.339L344.982 185.475Z" fill="#BE6F72"/>
<path opacity="0.1" d="M347.889 181.611C347.889 181.611 356.311 188.503 358.849 189.109C361.387 189.714 362.944 195.09 362.944 195.09" fill="black"/>
<path d="M275.965 186.485C275.965 186.485 267.139 209.555 262.121 207.248C257.103 204.941 258.464 195.136 257.506 192.448C256.549 189.761 255.487 169.378 255.487 169.378C255.487 169.378 255.003 154.959 254.045 152.04C253.157 149.358 252.436 135.833 252.315 133.705C252.315 133.52 252.315 133.422 252.315 133.422L253.272 116.696L258.66 115.352L271.154 119.967L272.885 129.846L273.559 133.705L273.848 135.349L275.965 186.485Z" fill="#BE6F72"/>
<path d="M333.434 63.0228H313.735V93.7239H333.434V63.0228Z" fill="#3E373A"/>
<path opacity="0.1" d="M333.434 63.0228H313.735V93.7239H333.434V63.0228Z" fill="black"/>
<path d="M272.504 209.463C272.504 209.463 265.772 216.863 268.27 218.206C270.768 219.55 286.924 244.738 286.924 244.738C286.924 244.738 339.992 251.272 350 241.467C360.008 231.662 359.806 214.146 359.806 214.146C359.806 214.146 351.765 215.876 350.889 214.936C350.012 213.996 345.195 209.463 345.195 209.463C345.195 209.463 277.118 205.333 272.504 209.463Z" fill="#4B4B5B"/>
<path opacity="0.02" d="M272.504 209.463C272.504 209.463 265.772 216.863 268.27 218.206C270.768 219.55 286.924 244.738 286.924 244.738C286.924 244.738 339.992 251.272 350 241.467C360.008 231.662 359.806 214.146 359.806 214.146C359.806 214.146 351.765 215.876 350.889 214.936C350.012 213.996 345.195 209.463 345.195 209.463C345.195 209.463 277.118 205.333 272.504 209.463Z" fill="black"/>
<path d="M368.038 115.929L350.733 129.772L345.501 130.152L343.58 130.291L311.318 132.655L277.863 130.21L272.885 129.846L266.539 129.385L253.272 116.696C253.272 116.696 262.663 106.638 270.889 99.8491C274.13 97.1671 277.193 94.9985 279.426 94.1449L279.806 94.0122C281.211 93.4647 282.464 92.5909 283.464 91.463C289.959 84.7667 295.963 68.2425 295.963 68.2425C295.963 68.2425 324.614 53.4428 321.153 72.8566C317.692 92.2704 334.034 87.4718 334.034 87.4718L339.421 89.9288L341.55 90.9035L346.978 93.3893L359.224 99.007C368.834 103.431 368.038 115.929 368.038 115.929Z" fill="#BE6F72"/>
<path opacity="0.1" d="M309.974 84.0516C324.205 84.0516 335.741 72.5166 335.741 58.2876C335.741 44.0585 324.205 32.5236 309.974 32.5236C295.744 32.5236 284.208 44.0585 284.208 58.2876C284.208 72.5166 295.744 84.0516 309.974 84.0516Z" fill="black"/>
<path opacity="0.1" d="M368.078 134.282H252.315C252.315 134.097 252.315 133.999 252.315 133.999L253.272 117.273C253.272 117.273 262.663 107.214 270.889 100.426L343.569 97.542L346.949 93.9777L359.195 99.5953C368.811 104.013 368.038 116.512 368.038 116.512C368.038 116.512 369.353 130.994 368.078 134.282Z" fill="black"/>
<path d="M368.078 133.705H252.315C252.315 133.52 252.315 133.422 252.315 133.422L253.272 116.696C253.272 116.696 262.663 106.638 270.889 99.8491L343.569 96.9653L346.949 93.4009L359.195 99.0185C368.811 103.437 368.038 115.935 368.038 115.935C368.038 115.935 369.353 130.417 368.078 133.705Z" fill="#E7C7CA"/>
<path opacity="0.1" d="M291.418 86.8027C291.418 86.8027 309.68 110.069 334.005 86.324C358.33 62.5787 336.699 139.288 336.699 139.288L284.208 145.517L291.418 86.8027Z" fill="black"/>
<path d="M291.418 87.9562C291.418 87.9562 309.68 111.223 334.005 87.4775C358.33 63.7322 336.699 140.442 336.699 140.442L284.208 146.671L291.418 87.9562Z" fill="#E7C7CA"/>
<path opacity="0.1" d="M341.521 92.0397L343.453 121.507L345.524 131.311L347.105 138.809C347.105 138.809 351.142 196.486 349.989 199.369C348.835 202.253 350.566 204.56 350.808 206.094C351.05 207.629 350.565 211.481 350.756 213.212C350.946 214.942 350.756 215.709 346.337 215.092C341.919 214.475 335.758 213.402 335.758 213.402C335.758 213.402 320.184 214.556 314.802 212.635C309.421 210.714 299.228 210.709 299.228 210.709C299.228 210.709 283.844 211.095 278.849 210.518C273.854 209.941 271.154 216.672 267.889 214.746C264.624 212.82 271.731 194.179 274.038 188.792C276.345 183.405 270.964 169.758 270.964 169.758L277.886 131.363L279.426 122.66V95.2984L279.806 95.1658C281.21 94.6183 282.464 93.7444 283.463 92.6165L285.194 120.151L339.415 122.078V91.0881" fill="black"/>
<path d="M341.521 90.8862L343.453 120.353L345.524 130.158L347.105 137.656C347.105 137.656 351.142 195.332 349.989 198.216C348.835 201.1 350.566 203.407 350.808 204.941C351.05 206.475 350.565 210.328 350.756 212.058C350.946 213.788 350.756 214.556 346.337 213.938C341.919 213.321 335.758 212.249 335.758 212.249C335.758 212.249 320.184 213.402 314.802 211.481C309.421 209.561 299.228 209.555 299.228 209.555C299.228 209.555 283.844 209.941 278.849 209.365C273.854 208.788 271.154 215.519 267.889 213.592C264.624 211.666 271.731 193.025 274.038 187.638C276.345 182.251 270.964 168.605 270.964 168.605L277.886 130.21L279.426 121.506V94.1449L279.806 94.0122C281.21 93.4647 282.464 92.5909 283.463 91.463L285.194 118.998L339.415 120.924V89.9345" fill="#E7C7CA"/>
<path opacity="0.1" d="M347.757 29.3918C347.428 28.1864 346.972 26.9348 346.026 26.1273C345.123 25.4788 344.079 25.052 342.98 24.8815C340.349 24.1898 337.674 23.6772 334.974 23.3473C334.588 22.0666 334.004 20.8542 333.244 19.7541C327.591 11.7717 319.227 4.24498 309.386 2.54353C304.235 1.64955 298.265 2.45125 294.965 6.51165C293.154 8.74372 292.375 11.7025 290.547 13.8942C287.023 18.1507 280.66 18.6756 276.219 21.9689C273.848 23.6992 272.129 26.2081 270.45 28.642C268.633 31.2778 266.764 34.0232 266.188 37.1723C265.034 43.4648 269.193 49.4631 269.96 55.8133C271.691 70.0189 256.462 82.6212 259.341 96.6365C261.019 104.809 268.57 110.565 276.38 113.484C279.132 114.516 282.275 115.543 283.562 118.184C284.138 119.338 284.236 120.67 284.779 121.835C286.601 125.723 292.595 125.873 295.813 123.041C299.032 120.209 300.047 115.629 300.428 111.355C301.974 92.6915 294.498 74.2524 295.369 55.5422C295.629 49.8842 297.221 43.4648 302.291 40.904C309.115 37.4434 317.323 43.211 324.833 42.1094C328.387 50.7559 329.142 60.2986 326.991 69.396C325.797 74.3735 323.732 79.201 323.582 84.3342C323.357 92.1493 327.573 99.2896 331.219 106.199C332.001 107.491 332.524 108.923 332.759 110.415C332.816 111.929 332.535 113.437 331.934 114.828C329.875 120.37 326.322 125.515 325.918 131.415C325.8 132.104 325.955 132.812 326.35 133.388C326.757 133.772 327.281 134.008 327.839 134.057C334.068 135.124 339.456 129.604 342.496 124.062C345.885 117.94 347.86 111.137 348.276 104.152C348.904 92.4089 344.694 80.8563 344.953 69.1019C345.253 55.7383 351.292 42.2824 347.757 29.3918Z" fill="black"/>
<path d="M348.333 28.815C348.005 27.6096 347.549 26.358 346.603 25.5506C345.699 24.902 344.656 24.4752 343.557 24.3047C340.926 23.613 338.251 23.1004 335.551 22.7706C335.165 21.4899 334.581 20.2774 333.82 19.1773C328.167 11.1949 319.804 3.6682 309.963 1.96675C304.812 1.07277 298.842 1.87446 295.542 5.93487C293.731 8.16694 292.952 11.1257 291.124 13.3174C287.599 17.5739 281.237 18.0988 276.795 21.3921C274.425 23.1224 272.706 25.6313 271.027 28.0652C269.21 30.701 267.341 33.4464 266.764 36.5956C265.611 42.888 269.77 48.8864 270.537 55.2365C272.267 69.4422 257.039 82.0444 259.917 96.0598C261.596 104.232 269.147 109.989 276.957 112.907C279.708 113.939 282.852 114.966 284.138 117.608C284.715 118.761 284.813 120.093 285.356 121.258C287.178 125.146 293.171 125.296 296.39 122.464C299.609 119.632 300.624 115.053 301.005 110.779C302.551 92.1147 295.075 73.6756 295.946 54.9654C296.206 49.3074 297.798 42.888 302.868 40.3272C309.692 36.8666 317.9 42.6343 325.41 41.5326C328.964 50.1791 329.719 59.7219 327.568 68.8193C326.374 73.7967 324.309 78.6242 324.159 83.7574C323.934 91.5725 328.15 98.7129 331.796 105.622C332.578 106.915 333.101 108.347 333.336 109.839C333.393 111.352 333.111 112.86 332.511 114.251C330.452 119.794 326.898 124.938 326.495 130.839C326.376 131.527 326.532 132.235 326.927 132.811C327.334 133.196 327.858 133.431 328.415 133.48C334.645 134.547 340.033 129.027 343.073 123.485C346.462 117.363 348.437 110.56 348.852 103.575C349.481 91.8321 345.27 80.2795 345.53 68.5251C345.83 55.1615 351.869 41.7057 348.333 28.815Z" fill="#3E373A"/>
<path d="M335.591 284.188L358.474 284.921L355.192 267.952L337.662 269.619L335.591 284.188Z" fill="#C3C7D9"/>
<path d="M406.495 243.97C404.954 245.891 398.996 249.352 398.419 250.505C397.842 251.659 390.73 255.119 387.073 255.696C383.416 256.273 371.885 258.776 369.768 260.12C368.251 261.089 356.074 264.157 348.074 265.859C345.907 266.371 343.713 266.766 341.504 267.041C338.043 267.231 300.168 254.352 300.168 254.352L307.471 246.854L307.875 246.716C309.94 246.018 319.48 242.794 324.776 241.26C330.74 239.529 337.662 232.418 337.662 232.418C337.662 232.418 347.849 228.957 349.199 228.571C350.548 228.184 345.738 215.115 345.738 215.115C345.738 215.115 367.847 212.047 376.5 209.445C385.152 206.844 405.151 207.807 408.802 217.999C412.453 228.19 408.058 242.05 406.495 243.97Z" fill="#4B4B5B"/>
<path d="M305.74 276.459C305.74 276.459 301.322 281.074 296.898 280.693C292.473 280.312 277.003 281.846 277.003 281.846C274.199 282.965 271.574 284.486 269.21 286.362C265.593 289.212 263.673 286.939 263.315 286.455L263.252 286.362C261.325 292.424 256.906 287.804 256.906 287.804C256.906 287.804 258.827 269.348 258.239 267.041C257.651 264.734 262.04 260.772 262.04 260.772L267.232 259.451L280.383 256.082L299.228 262.617L305.74 276.459Z" fill="#E7C7CA"/>
<path opacity="0.1" d="M267.209 259.451L263.315 286.455L263.252 286.362C261.325 292.424 256.906 287.804 256.906 287.804C256.906 287.804 258.827 269.348 258.239 267.041C257.651 264.734 262.04 260.772 262.04 260.772L267.209 259.451Z" fill="black"/>
<path opacity="0.1" d="M294.423 182.638C294.423 182.638 304.61 186.098 313.458 182.638H294.423Z" fill="black"/>
<path opacity="0.1" d="M329.2 189.178C329.2 189.178 333.428 191.289 336.699 189.178H329.2Z" fill="black"/>
<path opacity="0.1" d="M329.2 194.184C329.2 194.184 336.312 195.136 337.662 193.215L329.2 194.184Z" fill="black"/>
<path opacity="0.1" d="M326.893 204.941C326.893 204.941 340.252 203.211 343.569 200.904L326.893 204.941Z" fill="black"/>
<path opacity="0.1" d="M286.128 200.904C286.128 200.904 293.627 205.131 299.205 204.941L286.128 200.904Z" fill="black"/>
<path opacity="0.1" d="M348.068 265.859C345.901 266.371 343.708 266.766 341.498 267.041C338.037 267.231 300.163 254.352 300.163 254.352L307.465 246.854L307.869 246.716C309.023 247.529 309.969 248.227 310.643 248.758C313.822 251.261 316.891 247.99 318.044 247.99C319.198 247.99 329.194 256.255 329.194 256.255C329.194 256.255 338.423 258.372 339.964 260.293C341.504 262.213 346.885 261.833 347.843 263.177C348.131 263.592 348.166 264.613 348.068 265.859Z" fill="black"/>
<path d="M277.003 215.899C277.003 215.899 267.67 216.436 262.288 214.169C256.906 211.902 239.025 206.671 233.833 210.345C228.642 214.019 216.142 217.266 221.91 231.882C227.679 246.497 230.372 246.877 230.372 246.877C232.157 248.216 233.715 249.832 234.987 251.664C236.718 254.358 252.869 260.506 256.906 260.506C260.944 260.506 268.056 260.506 278.053 267.427C288.049 274.349 297.088 275.121 297.088 275.121C297.088 275.121 309.778 280.312 313.729 281.466C317.681 282.619 335.735 287.614 339.969 286.08C344.203 284.546 346.891 274.925 346.891 274.925C346.891 274.925 348.812 266.274 347.849 264.93C346.885 263.586 341.504 263.967 339.969 262.046C338.435 260.126 329.2 258.009 329.2 258.009C329.2 258.009 319.227 249.738 318.073 249.738C316.919 249.738 313.851 253.003 310.672 250.505C304.341 245.816 297.689 241.576 290.766 237.816C283.463 233.969 277.003 215.899 277.003 215.899Z" fill="#4B4B5B"/>
<path opacity="0.1" d="M258.239 221.477C259.901 221.137 261.618 221.186 263.258 221.619C264.898 222.052 266.416 222.858 267.693 223.974C272.308 227.821 287.836 235.544 287.836 235.544" fill="black"/>
<path opacity="0.1" d="M373.616 221.234C373.616 221.234 353.04 224.349 349.198 228.577L373.616 221.234Z" fill="black"/>
<path d="M397.265 284.921H396.36C393.106 284.805 382.083 284.459 379.961 284.921C377.463 285.497 344.388 284.921 344.388 284.921L350.854 283.577C350.854 283.577 348.454 275.167 349.977 274.47C349.977 274.47 341.325 268.771 347.849 264.924C354.373 261.077 361.404 262.698 361.404 262.698L377.78 257.149L380.924 256.082C380.924 256.082 399.382 257.046 404.378 269.734C409.373 282.423 397.265 284.921 397.265 284.921Z" fill="#E7C7CA"/>
<path opacity="0.1" d="M397.265 284.921H396.36C401.73 280.491 413.878 267.006 377.78 257.178L380.924 256.111C380.924 256.111 399.382 257.074 404.378 269.763C409.373 282.452 397.265 284.921 397.265 284.921Z" fill="black"/>
<path d="M363.331 269.971C363.888 269.971 364.34 269.519 364.34 268.962C364.34 268.404 363.888 267.952 363.331 267.952C362.773 267.952 362.321 268.404 362.321 268.962C362.321 269.519 362.773 269.971 363.331 269.971Z" fill="#4B4B5B"/>
<path d="M357.464 271.638C358.022 271.638 358.474 271.186 358.474 270.628C358.474 270.071 358.022 269.619 357.464 269.619C356.907 269.619 356.455 270.071 356.455 270.628C356.455 271.186 356.907 271.638 357.464 271.638Z" fill="#4B4B5B"/>
<g opacity="0.1">
<path opacity="0.1" d="M328.883 57.336C329.106 50.992 327.978 44.6731 325.572 38.7988C318.073 39.9177 309.859 34.1328 303.029 37.5934C297.976 40.1542 296.39 46.5736 296.107 52.2316C296.038 53.7254 296.027 55.2192 296.056 56.713C296.056 56.1824 296.056 55.646 296.107 55.1154C296.373 49.4574 297.959 43.038 303.029 40.4772C309.859 37.0166 318.061 42.7842 325.572 41.6826C327.609 46.6584 328.731 51.9614 328.883 57.336Z" fill="black"/>
<path opacity="0.1" d="M270.773 56.2805C270.872 55.0237 270.847 53.7603 270.698 52.5085C270.087 47.433 267.312 42.5824 266.811 37.6338C266.164 43.6032 269.966 49.3363 270.698 55.3923C270.773 55.7037 270.773 55.9806 270.773 56.2805Z" fill="black"/>
<path opacity="0.1" d="M301.166 108.039C300.809 112.319 299.799 116.892 296.552 119.73C293.304 122.568 287.323 122.412 285.517 118.525C284.94 117.371 284.854 116.027 284.294 114.874C283.014 112.232 279.864 111.206 277.113 110.173C269.297 107.249 261.758 101.522 260.079 93.3259C259.929 92.5834 259.827 91.8321 259.773 91.0765C259.631 92.7934 259.734 94.5218 260.079 96.2097C261.758 104.382 269.308 110.133 277.113 113.057C279.864 114.089 283.014 115.116 284.294 117.758C284.871 118.911 284.969 120.243 285.517 121.408C287.334 125.296 293.327 125.446 296.552 122.614C299.776 119.782 300.78 115.203 301.166 110.923C301.342 108.67 301.402 106.41 301.345 104.152C301.345 105.461 301.27 106.753 301.166 108.039Z" fill="black"/>
<path opacity="0.1" d="M345.72 65.7913C345.72 66.6276 345.72 67.4581 345.72 68.2887C346.043 57.5609 349.977 46.7754 349.591 36.2726C349.291 45.9853 345.939 55.9171 345.72 65.7913Z" fill="black"/>
<path opacity="0.1" d="M333.342 109.187C333.483 108.503 333.528 107.802 333.474 107.105C333.242 105.612 332.719 104.18 331.934 102.889C328.6 96.5442 324.799 90.0499 324.349 83.0076C324.349 83.3075 324.308 83.5844 324.303 83.9074C324.072 91.7167 328.289 98.8628 331.934 105.772C332.554 106.843 333.027 107.991 333.342 109.187Z" fill="black"/>
<path opacity="0.1" d="M349.037 100.841C348.606 107.829 346.618 114.631 343.217 120.751C340.171 126.294 334.789 131.813 328.554 130.746C327.995 130.698 327.47 130.46 327.066 130.071C326.949 129.939 326.857 129.787 326.795 129.622C326.725 130.071 326.668 130.527 326.633 130.988C326.514 131.675 326.669 132.382 327.066 132.955C327.47 133.344 327.995 133.582 328.554 133.63C334.789 134.697 340.171 129.177 343.217 123.635C346.618 117.515 348.606 110.713 349.037 103.725C349.106 102.375 349.112 101.031 349.072 99.6876C349.06 100.074 349.06 100.455 349.037 100.841Z" fill="black"/>
</g>
<path opacity="0.1" d="M349.977 274.47C349.977 274.47 364.577 280.595 374.204 267.041" stroke="black" stroke-miterlimit="10"/>
<path opacity="0.1" d="M352.85 285.174C352.85 285.174 364.773 277.423 379.961 284.921" stroke="black" stroke-miterlimit="10"/>
<path opacity="0.1" d="M273.04 283.415C273.04 283.415 278.047 272.122 291.418 280.733" stroke="black" stroke-miterlimit="10"/>
<path opacity="0.1" d="M256.808 116.408L267.018 107.18C267.018 107.18 306.606 104.584 308.244 118.04C308.244 118.04 322.278 102.087 351.794 105.64L364.282 115.583L329.765 130.729L296.223 142.362L271.517 131.306L256.808 116.408Z" fill="black"/>
<path d="M256.808 116.985L267.018 107.756C267.018 107.756 306.606 105.161 308.244 118.617C308.244 118.617 322.278 102.664 351.794 106.217L364.282 116.16L329.765 131.306L296.223 142.939L271.517 131.882L256.808 116.985Z" fill="#D5D6DB"/>
<path opacity="0.1" d="M252.292 118.138L256.808 172.164L304.685 174.569L302.608 120.774L302.568 119.869L252.292 118.138Z" fill="black"/>
<path d="M252.292 116.985L256.808 171.01L304.685 173.415L302.608 119.62L302.568 118.715L252.292 116.985Z" fill="#F6DB46"/>
<path opacity="0.1" d="M366.474 116.985L317.087 124.39V178.658L365.35 171.685L366.474 116.985Z" fill="black"/>
<path d="M366.474 115.831L317.087 123.237V177.504L365.35 170.531L366.474 115.831Z" fill="#F6DB46"/>
<path opacity="0.3" d="M354.828 129.074L328.15 132.038L328.733 141.128L354.811 138.279L354.828 129.074Z" fill="white"/>
<path d="M259.404 199.94L262.121 207.248C262.121 207.248 266.159 210.709 270.577 208.978C274.996 207.248 278.849 206.389 280.77 204.704C282.691 203.02 285.384 194.559 285.384 194.559C285.384 194.559 288.078 185.331 290.766 183.024C293.454 180.717 300.572 148.932 290.766 152.04C280.96 155.149 273.461 183.987 273.461 183.987C273.461 183.987 271.731 186.098 269.233 186.294C266.736 186.49 261.734 185.908 260.771 188.025C259.808 190.141 256.52 195.713 259.404 199.94Z" fill="#BE6F72"/>
<path opacity="0.1" d="M317.087 124.385C314.558 124.954 311.931 124.924 309.416 124.298C306.901 123.671 304.568 122.464 302.603 120.774L304.685 174.563C304.685 174.563 309.588 179.869 317.087 178.658V124.385Z" fill="black"/>
<path d="M317.087 123.231C314.558 123.801 311.931 123.771 309.416 123.144C306.901 122.517 304.568 121.31 302.603 119.621L304.685 173.409C304.685 173.409 309.588 178.716 317.087 177.504V123.231Z" fill="#F6DB46"/>
<path opacity="0.1" d="M317.087 123.231C314.558 123.801 311.931 123.771 309.416 123.144C306.901 122.517 304.568 121.31 302.603 119.621L304.685 173.409C304.685 173.409 309.588 178.716 317.087 177.504V123.231Z" fill="black"/>
<path opacity="0.1" d="M318.24 117.169C318.24 117.169 338.331 111.027 343.569 111.892L318.24 117.169Z" fill="black"/>
<path opacity="0.1" d="M295.767 114.487C295.767 114.487 276.294 109.873 273.04 111.182L295.767 114.487Z" fill="black"/>
<path opacity="0.1" d="M330.907 117.936C330.907 117.936 344.342 113.011 349.198 115.352L330.907 117.936Z" fill="black"/>
<path opacity="0.1" d="M324.141 241.496C326.223 239.933 328.439 238.557 330.763 237.384C334.224 235.717 340.569 231.391 340.569 231.391" fill="black"/>
<path opacity="0.1" d="M273.04 182.638C273.04 182.638 264.613 189.53 262.081 190.135C259.548 190.741 257.985 196.116 257.985 196.116" fill="black"/>
<path d="M361.519 198.914L358.831 206.239C358.831 206.239 354.794 209.699 350.369 207.969C345.945 206.239 342.104 205.379 340.177 203.695C338.25 202.011 335.562 193.55 335.562 193.55C335.562 193.55 332.874 184.322 330.181 182.015C327.487 179.708 320.375 147.922 330.181 151.031C339.987 154.14 347.485 182.978 347.485 182.978C347.485 182.978 349.216 185.089 351.713 185.285C354.211 185.481 359.212 184.898 360.175 187.015C361.139 189.132 364.404 194.703 361.519 198.914Z" fill="#BE6F72"/>
<path opacity="0.1" d="M356.807 185.441C356.807 185.441 362.315 188.982 362.292 193.215L356.807 185.441Z" fill="black"/>
<path d="M310.067 82.7884C324.297 82.7884 335.833 71.2535 335.833 57.0245C335.833 42.7954 324.297 31.2605 310.067 31.2605C295.836 31.2605 284.3 42.7954 284.3 57.0245C284.3 71.2535 295.836 82.7884 310.067 82.7884Z" fill="#BE6F72"/>
<path d="M293.887 50.1091C297.013 49.6189 299.753 47.802 302.741 46.7581C309.426 44.4107 316.821 46.0199 323.587 48.1366C326.183 48.9498 328.819 49.8669 331.542 49.8669C334.264 49.8669 337.154 48.7537 338.545 46.4063C339.825 44.2492 339.577 41.4461 338.498 39.1795C337.42 36.9128 335.614 35.0902 333.791 33.3715C327.793 27.7076 320.351 22.413 312.12 22.9897C308.809 23.2262 305.642 24.4086 302.597 25.7178C298.762 27.3702 295.029 29.25 291.418 31.347C288.643 32.9562 283.504 35.1075 281.906 38.049C278.272 44.676 288.234 50.9973 293.887 50.1091Z" fill="#3E373A"/>
<path opacity="0.1" d="M338.545 43.9839C337.154 46.3313 334.264 47.4445 331.542 47.4445C328.819 47.4445 326.183 46.562 323.582 45.7488C316.816 43.6321 309.426 42.0172 302.735 44.3703C299.753 45.4143 297.007 47.2542 293.881 47.7156C289.324 48.4308 281.987 44.4626 281.191 39.416C280.297 45.247 288.805 50.2418 293.881 49.4458C297.007 48.9556 299.753 47.1388 302.735 46.1006C309.426 43.7474 316.816 45.3624 323.582 47.4791C326.183 48.2923 328.813 49.2094 331.542 49.1748C334.27 49.1402 337.154 48.0674 338.545 45.7142C339.265 44.434 339.549 42.9539 339.352 41.4981C339.262 42.3745 338.987 43.2219 338.545 43.9839Z" fill="black"/>
<path d="M547.649 356.56C547.649 356.56 551.07 361.03 546.069 367.784C541.068 374.538 536.949 380.236 538.611 384.447C538.611 384.447 546.156 371.908 552.293 371.729C558.43 371.55 554.393 364.099 547.649 356.56Z" fill="#F6DB46"/>
<path opacity="0.1" d="M547.649 356.56C547.947 356.992 548.182 357.464 548.347 357.962C554.335 364.998 557.531 371.568 551.768 371.729C546.404 371.885 539.972 381.476 538.432 383.893C538.481 384.088 538.541 384.281 538.611 384.47C538.611 384.47 546.155 371.931 552.293 371.752C558.43 371.573 554.393 364.099 547.649 356.56Z" fill="black"/>
<path d="M553.995 362.259C553.995 363.833 553.816 365.108 553.602 365.108C553.389 365.108 553.204 363.833 553.204 362.259C553.204 360.684 553.424 361.428 553.643 361.428C553.862 361.428 553.995 360.684 553.995 362.259Z" fill="#FFD037"/>
<path d="M556.181 364.139C554.802 364.889 553.596 365.344 553.493 365.154C553.389 364.964 554.421 364.197 555.8 363.424C557.179 362.651 556.636 363.216 556.74 363.424C556.844 363.631 557.565 363.383 556.181 364.139Z" fill="#FFD037"/>
<path d="M529.572 356.56C529.572 356.56 526.151 361.03 531.152 367.784C536.153 374.538 540.272 380.236 538.605 384.447C538.605 384.447 531.066 371.908 524.923 371.729C518.779 371.55 522.846 364.099 529.572 356.56Z" fill="#F6DB46"/>
<path opacity="0.1" d="M529.572 356.56C529.274 356.992 529.039 357.464 528.874 357.962C522.886 364.998 519.691 371.568 525.453 371.729C530.812 371.885 537.249 381.476 538.789 383.893C538.741 384.089 538.679 384.282 538.605 384.47C538.605 384.47 531.066 371.931 524.923 371.752C518.779 371.573 522.846 364.099 529.572 356.56Z" fill="black"/>
<path d="M523.215 362.259C523.215 363.833 523.388 365.108 523.607 365.108C523.827 365.108 524.005 363.833 524.005 362.259C524.005 360.684 523.78 361.428 523.567 361.428C523.354 361.428 523.215 360.684 523.215 362.259Z" fill="#FFD037"/>
<path d="M521.035 364.139C522.413 364.889 523.619 365.344 523.723 365.154C523.827 364.964 522.794 364.197 521.415 363.424C520.037 362.651 520.579 363.216 520.475 363.424C520.371 363.631 519.65 363.383 521.035 364.139Z" fill="#FFD037"/>
<path opacity="0.1" d="M538.611 418.66C558.362 418.66 574.374 416.204 574.374 413.175C574.374 410.146 558.362 407.69 538.611 407.69C518.859 407.69 502.847 410.146 502.847 413.175C502.847 416.204 518.859 418.66 538.611 418.66Z" fill="#F6DB46"/>
<path d="M557.017 378.42L556.844 379.815L556.602 381.788L556.504 382.613L556.262 384.585L556.158 385.41L555.921 387.377L553.181 409.813C552.939 411.814 549.668 413.377 545.717 413.377H531.498C527.547 413.377 524.282 411.814 524.034 409.813L521.294 387.377L521.052 385.41L520.954 384.585L520.712 382.613L520.608 381.788L520.371 379.815L520.198 378.42C520.066 377.266 521.831 376.332 524.069 376.332H553.152C555.385 376.332 557.156 377.283 557.017 378.42Z" fill="#65617D"/>
<path d="M556.844 379.815L556.608 381.788H520.614L520.371 379.815H556.844Z" fill="#9D9CB5"/>
<path d="M556.504 382.613L556.267 384.585H520.954L520.712 382.613H556.504Z" fill="#9D9CB5"/>
<path d="M556.163 385.41L555.921 387.382H521.294L521.058 385.41H556.163Z" fill="#9D9CB5"/>
</g>
<defs>
<linearGradient id="paint0_linear" x1="315.316" y1="289.489" x2="315.316" y2="-1.47287e-05" gradientUnits="userSpaceOnUse">
<stop stop-color="#808080" stop-opacity="0.25"/>
<stop offset="0.54" stop-color="#808080" stop-opacity="0.12"/>
<stop offset="1" stop-color="#808080" stop-opacity="0.1"/>
</linearGradient>
<clipPath id="clip0">
<rect width="590" height="469" fill="white"/>
</clipPath>
</defs>
</svg>
