<svg width="294" height="387" viewBox="0 0 294 387" fill="none" xmlns="http://www.w3.org/2000/svg">
<path d="M111.968 385.586C111.526 385.161 111.093 384.724 110.67 384.277C105.686 379.003 96.7478 368.036 92.5126 362.784C92.2161 362.416 91.9941 361.985 91.8612 361.517C91.7284 361.049 91.6877 360.556 91.7418 360.07C91.7959 359.584 91.9435 359.116 92.175 358.697C92.4065 358.277 92.7168 357.916 93.0854 357.636L101.311 351.379C100.993 351.205 100.815 351.106 100.815 351.106L106.717 341.807C106.065 327.601 133.826 288.942 140.773 283.162C147.72 277.381 124.472 231.72 124.472 231.72C120.937 230.229 118.078 227.064 115.889 223.708C115.756 223.734 115.623 223.762 115.488 223.783L112.513 223.484C111.27 223.36 110.108 222.761 109.232 221.793C108.355 220.825 107.822 219.551 107.725 218.196C107.419 214.372 107.309 210.534 107.395 206.697C106.789 204.709 106.776 201.118 102.812 198.269C97.6277 194.545 64.3338 101.344 79.6527 84.2837C79.6527 84.2837 86.179 73.6545 89.8698 72.3533C89.8698 72.3533 89.2856 69.2407 91.4798 67.8412L92.5424 64.1931C92.5424 64.1931 93.9688 64.8785 96.0927 65.9533C97.7562 63.2892 99.2409 60.4978 100.535 57.6008C99.7988 54.1181 88.7499 38.7753 98.6596 28.1676C108.714 17.405 113.68 10.102 121.171 13.0134C128.661 15.9249 146.262 20.2693 145.747 27.1137C145.232 33.958 147.05 36.6483 143.807 39.4572C140.564 42.2662 140.451 42.0343 140.451 42.0343L140.451 42.0338C141.25 45.4343 141.258 48.9979 140.475 52.4027C139.692 55.8075 138.143 58.9461 135.967 61.5349C133.791 64.1237 131.057 66.081 128.013 67.2299C124.968 68.3788 121.709 68.6832 118.529 68.1155C117.027 71.2529 115.788 74.5316 114.827 77.9117C115.754 79.8303 116.068 82.0305 115.72 84.1651C119.095 89.5982 122.163 95.2494 124.909 101.087C127.106 105.705 131.17 115.484 135.623 125.904C143.445 123.156 150.517 120.376 150.517 120.376C150.517 120.376 150.927 120.902 151.571 121.767C153.785 121.356 156.025 121.127 158.272 121.08L177.154 100.365C177.406 100.049 177.757 99.846 178.139 99.7942C178.52 99.7423 178.906 99.8456 179.222 100.084L195.817 108.652C196.014 108.851 196.172 109.092 196.282 109.36C196.391 109.627 196.449 109.916 196.453 110.209C196.457 110.502 196.406 110.793 196.304 111.064C196.201 111.334 196.049 111.58 195.857 111.785L179.416 130.799C180.706 132.307 178.51 134.15 174.963 135.949L170.644 140.944C170.504 141.135 170.328 141.291 170.127 141.4C169.927 141.509 169.706 141.569 169.482 141.575C169.258 141.582 169.035 141.534 168.83 141.437C168.624 141.339 168.44 141.194 168.292 141.011L166.828 139.33C164.157 140.289 161.51 141.138 159.371 141.791C159.528 142.629 159.417 143.244 158.918 143.51C158.013 143.992 153.207 146.904 146.65 150.545C149.275 155.932 151.556 160.041 153.098 161.663C157.822 166.632 157.708 180.341 157.466 185.718C158.972 188.176 161.081 191.944 161.034 193.698C169.361 207.208 184.167 232.683 186.459 246.512C186.459 246.512 197.222 262.151 198.743 282.713C200.264 303.275 219.51 350.903 220.731 351.582C220.917 351.686 220.888 352.11 220.66 352.735C227.019 355.132 210.489 385.731 207.124 384.697C204.198 383.797 199.778 367.494 199.785 362.484C199.683 362.456 199.584 362.436 199.482 362.405C199.482 362.405 195.437 350.506 192.384 348.806C189.331 347.106 173.653 294.334 173.721 285.982C173.731 284.701 172.713 282.55 170.987 279.831C169.779 285.252 166.807 290.012 162.621 293.227C140.409 309.386 125.282 359.692 122.514 360.668C122.353 360.714 122.187 360.733 122.021 360.724C121.785 367.899 121.916 381.503 126.166 383.255C127.445 383.779 128.595 384.618 129.528 385.705" fill="#F2F2F2"/>
<path d="M17.5053 280.841C19.6345 279.66 22.0238 279.147 24.4053 279.362C26.7868 279.577 29.0662 280.51 30.9882 282.057C36.7577 286.844 37.6369 296.211 35.4673 303.75C33.2978 311.289 28.7566 317.694 25.2013 324.58C20.426 333.829 17.3505 344.413 18.1433 354.99C18.9361 365.567 24.0305 376.058 32.5263 381.25C40.4119 386.069 49.9648 385.885 59.0018 385.571" stroke="#F2F2F2" stroke-miterlimit="10"/>
<path d="M3.23398 290.637C1.91111 288.164 4.62763 283.754 9.30143 280.787C13.9752 277.82 18.8364 277.419 20.1593 279.892C21.4822 282.365 18.7657 286.775 14.0919 289.742C9.41815 292.709 4.55685 293.11 3.23398 290.637Z" fill="#F2F2F2"/>
<path d="M12.2445 324.435C10.9217 321.962 13.6381 317.552 18.3119 314.585C22.9857 311.618 27.847 311.218 29.1698 313.691C30.4927 316.164 27.7762 320.574 23.1024 323.541C18.4286 326.508 13.5674 326.908 12.2445 324.435Z" fill="#F2F2F2"/>
<path d="M30.2552 319.353C28.9323 316.88 31.6488 312.47 36.3226 309.503C40.9964 306.536 45.8576 306.135 47.1805 308.608C48.5034 311.082 45.7869 315.491 41.1131 318.458C36.4393 321.425 31.5781 321.826 30.2552 319.353Z" fill="#F2F2F2"/>
<path d="M19.3206 359.461C17.9977 356.988 20.7142 352.578 25.388 349.611C30.0618 346.644 34.923 346.244 36.2459 348.717C37.5688 351.19 34.8523 355.6 30.1785 358.567C25.5047 361.534 20.6434 361.934 19.3206 359.461Z" fill="#F2F2F2"/>
<path d="M2.39528 370.206C1.07242 367.733 3.78886 363.323 8.46266 360.356C13.1365 357.389 17.9977 356.988 19.3206 359.461C20.6435 361.934 17.927 366.344 13.2532 369.311C8.57937 372.278 3.71815 372.679 2.39528 370.206Z" fill="#F2F2F2"/>
<path d="M71.6436 272.407C74.0295 272.554 76.3306 273.422 78.289 274.913C80.2473 276.405 81.7856 278.461 82.7312 280.852C85.5037 288.153 81.9339 296.728 76.5751 302.052C71.2163 307.376 64.3325 310.419 58.0781 314.418C49.6773 319.791 42.1285 327.249 37.9251 336.822C33.7218 346.395 33.2747 358.253 38.2156 367.399C42.8016 375.888 51.1404 380.968 59.0935 385.654" stroke="#3F3D56" stroke-miterlimit="10"/>
<path d="M64.5806 278.225C59.1712 278.225 54.7859 275.905 54.7859 273.043C54.7859 270.18 59.1712 267.86 64.5806 267.86C69.9901 267.86 74.3753 270.18 74.3753 273.043C74.3753 275.905 69.9901 278.225 64.5806 278.225Z" fill="#F6DB46"/>
<path d="M56.7449 312.369C51.3354 312.369 46.9502 310.049 46.9502 307.187C46.9502 304.324 51.3354 302.004 56.7449 302.004C62.1544 302.004 66.5396 304.324 66.5396 307.187C66.5396 310.049 62.1544 312.369 56.7449 312.369Z" fill="#F6DB46"/>
<path d="M74.6552 317.857C69.2458 317.857 64.8605 315.536 64.8605 312.674C64.8605 309.812 69.2458 307.492 74.6552 307.492C80.0647 307.492 84.4499 309.812 84.4499 312.674C84.4499 315.536 80.0647 317.857 74.6552 317.857Z" fill="#F6DB46"/>
<path d="M46.6704 346.513C41.2609 346.513 36.8757 344.193 36.8757 341.331C36.8757 338.468 41.2609 336.148 46.6704 336.148C52.0798 336.148 56.4651 338.468 56.4651 341.331C56.4651 344.193 52.0798 346.513 46.6704 346.513Z" fill="#F6DB46"/>
<path d="M27.081 346.513C21.6716 346.513 17.2864 344.193 17.2864 341.331C17.2864 338.468 21.6716 336.148 27.081 336.148C32.4905 336.148 36.8757 338.468 36.8757 341.331C36.8757 344.193 32.4905 346.513 27.081 346.513Z" fill="#F6DB46"/>
<path d="M294 385.584H17.2863" stroke="#3F3D56" stroke-miterlimit="10"/>
<path d="M225.7 129.204C225.7 129.204 256.478 134.501 252.696 127.816C248.913 121.131 228.772 114.452 225.078 115.847C221.385 117.242 225.7 129.204 225.7 129.204Z" fill="#FFC1C7"/>
<path opacity="0.1" d="M225.7 129.204C225.7 129.204 256.478 134.501 252.696 127.816C248.913 121.131 228.772 114.452 225.078 115.847C221.385 117.242 225.7 129.204 225.7 129.204Z" fill="black"/>
<path d="M190.404 54.4472C190.404 54.4472 210.285 60.258 201.072 78.7469C201.072 78.7469 186.039 110.97 192.343 113.083C198.647 115.196 227.742 114.14 227.742 114.14C227.742 114.14 234.531 132.101 231.137 132.629C227.742 133.157 173.432 145.307 167.613 133.685C161.794 122.064 167.613 71.8796 167.613 71.8796C167.613 71.8796 175.856 47.0516 190.404 54.4472Z" fill="#F6DB46"/>
<path opacity="0.1" d="M190.404 54.4472C190.404 54.4472 210.285 60.258 201.072 78.7469C201.072 78.7469 186.039 110.97 192.343 113.083C198.647 115.196 227.742 114.14 227.742 114.14C227.742 114.14 234.531 132.101 231.137 132.629C227.742 133.157 173.432 145.307 167.613 133.685C161.794 122.064 167.613 71.8796 167.613 71.8796C167.613 71.8796 175.856 47.0516 190.404 54.4472Z" fill="black"/>
<path d="M134.153 329.14C134.153 329.14 125.425 351.855 130.274 356.081C135.123 360.307 134.153 368.23 130.759 368.23C127.364 368.23 119.606 360.835 115.241 351.855C111.99 345.165 106.586 331.733 104.041 325.316C103.863 324.866 103.774 324.381 103.78 323.892C103.786 323.402 103.886 322.92 104.075 322.475C104.264 322.031 104.536 321.635 104.875 321.314C105.214 320.992 105.612 320.752 106.041 320.61L120.091 315.933L134.153 329.14Z" fill="#3F3D56"/>
<path d="M226.288 356.609C226.288 356.609 244.714 372.985 254.413 372.456C264.111 371.928 265.566 383.021 254.413 384.606C243.26 386.191 209.8 386.719 206.891 384.606C203.981 382.493 204.951 360.307 206.891 359.778C208.831 359.25 226.288 356.609 226.288 356.609Z" fill="#3F3D56"/>
<path d="M163.733 188.096C163.733 188.096 163.733 204.471 171.492 211.339C171.492 211.339 180.705 262.579 172.462 265.749C164.218 268.919 126.88 296.388 123.485 310.122L115.241 316.99C115.241 316.99 130.274 333.366 133.183 333.366C136.093 333.366 164.703 290.577 190.404 282.653C190.404 282.653 206.406 278.427 205.921 255.712C205.436 232.997 186.524 172.776 186.524 172.776H164.703L163.733 188.096Z" fill="#2F2E41"/>
<path opacity="0.1" d="M163.733 188.096C163.733 188.096 163.733 204.471 171.492 211.339C171.492 211.339 180.705 262.579 172.462 265.749C164.218 268.919 126.88 296.388 123.485 310.122L115.241 316.99C115.241 316.99 130.274 333.366 133.183 333.366C136.093 333.366 164.703 290.577 190.404 282.653C190.404 282.653 206.406 278.427 205.921 255.712C205.436 232.997 186.524 172.776 186.524 172.776H164.703L163.733 188.096Z" fill="black"/>
<path d="M214.165 177.002C214.165 177.002 228.712 226.658 226.288 246.204C226.288 246.204 232.107 264.692 227.742 284.766C223.378 304.84 228.227 356.609 229.197 357.665C230.167 358.722 218.529 369.815 205.921 360.835C205.921 360.835 205.436 348.157 203.011 345.515C200.587 342.874 200.587 287.407 203.011 279.484C205.436 271.56 176.826 213.98 176.826 213.98C176.826 213.98 161.309 198.661 167.128 190.737C172.947 182.813 166.643 166.965 166.643 166.965L210.77 170.135L214.165 177.002Z" fill="#2F2E41"/>
<path d="M220.953 56.032C210.241 56.032 201.557 46.5717 201.557 34.9018C201.557 23.2319 210.241 13.7716 220.953 13.7716C231.666 13.7716 240.35 23.2319 240.35 34.9018C240.35 46.5717 231.666 56.032 220.953 56.032Z" fill="#FFC1C7"/>
<path d="M208.346 25.3932C208.346 25.3932 192.828 44.9386 188.949 45.4669C185.07 45.9951 201.557 68.7101 201.557 68.7101C201.557 68.7101 210.77 51.8059 217.074 50.2212C223.378 48.6364 208.346 25.3932 208.346 25.3932Z" fill="#FFC1C7"/>
<path d="M186.039 44.9386L188.464 41.2408C188.464 41.2408 205.171 57.4662 205.789 61.7675C206.205 64.1811 205.73 66.6761 204.466 68.71L194.768 63.9557L189.919 53.3906L186.039 44.9386Z" fill="#3F3D56"/>
<path d="M215.134 175.946C215.134 175.946 219.014 188.624 216.104 188.096C213.195 187.567 213.195 180.7 209.8 180.7C206.406 180.7 204.466 174.889 204.466 174.889L215.134 175.946Z" fill="#3F3D56"/>
<path d="M190.404 177.002C190.404 177.002 179.251 203.415 165.188 200.774L162.442 199.492C161.295 198.957 160.358 197.997 159.798 196.782C159.238 195.568 159.09 194.176 159.381 192.854C160.721 186.77 163.185 177.002 165.188 177.002H190.404Z" fill="#3F3D56"/>
<path d="M240.308 36.228C240.308 36.228 238.411 29.6192 232.107 32.2605C225.803 34.9018 220.469 40.7126 219.014 36.4866C217.559 32.2605 213.836 28.3728 211.333 31.6373C208.831 34.9018 197.435 40.9767 197.92 37.8072C198.405 34.6377 191.858 15.8846 204.466 9.01733C217.074 2.15003 223.863 -3.13252 230.167 2.15003C236.471 7.43257 251.988 17.4694 249.564 23.8085C247.139 30.1475 248.109 33.3171 244.229 34.9018C240.35 36.4866 240.308 36.228 240.308 36.228Z" fill="#2F2E41"/>
<path d="M183.615 48.1081C183.615 48.1081 184.1 43.3538 188.464 44.4103C192.828 45.4669 204.466 66.597 204.466 66.597C206.366 73.3435 207.824 80.228 208.831 87.1989C210.77 99.8771 214.65 146.363 218.529 154.287C222.408 162.211 215.134 180.7 215.134 180.7C215.134 180.7 210.77 175.417 196.708 178.587C182.645 181.757 164.218 184.926 162.763 183.341C161.309 181.757 164.218 177.53 160.339 172.248C156.459 166.965 151.125 67.1253 170.522 56.032C170.522 56.0319 179.735 48.1081 183.615 48.1081Z" fill="#F6DB46"/>
<path opacity="0.1" d="M188.464 63.9558C188.464 63.9558 208.346 69.7667 199.132 88.2555C199.132 88.2555 184.1 120.479 190.404 122.592C196.708 124.705 225.803 123.649 225.803 123.649C225.803 123.649 228.955 135.006 225.56 135.534C222.166 136.063 171.492 154.816 165.673 143.194C159.854 131.572 165.673 81.3882 165.673 81.3882C165.673 81.3882 173.916 56.5602 188.464 63.9558Z" fill="black"/>
<path d="M273.308 121.174L241.078 140.46C240.891 140.595 240.68 140.684 240.458 140.72C240.236 140.757 240.01 140.74 239.795 140.671C239.579 140.601 239.381 140.482 239.213 140.32C239.045 140.158 238.911 139.958 238.822 139.734L230.926 121.756C230.777 121.244 230.801 120.69 230.995 120.195C231.188 119.7 231.539 119.298 231.982 119.061L258.741 104.036C259.071 103.82 259.462 103.744 259.84 103.823C260.217 103.901 260.555 104.129 260.788 104.462L274.155 118.18C274.286 118.436 274.369 118.718 274.397 119.009C274.426 119.3 274.4 119.595 274.321 119.875C274.241 120.155 274.111 120.414 273.937 120.638C273.763 120.861 273.549 121.043 273.308 121.174V121.174Z" fill="#2F2E41"/>
<path d="M271.158 118.518L240.942 137.332L232.902 121.545L258.822 106.189L271.158 118.518Z" fill="#3F3D56"/>
<path d="M245.23 113.188C245.069 113.041 245.067 112.756 245.224 112.551C245.381 112.345 245.639 112.297 245.8 112.444C245.961 112.59 245.964 112.875 245.806 113.08C245.649 113.286 245.391 113.334 245.23 113.188Z" fill="#F2F2F2"/>
<path d="M256.544 129.215C256.436 129.117 256.434 128.927 256.539 128.79C256.644 128.653 256.816 128.621 256.923 128.719C257.031 128.816 257.033 129.006 256.928 129.143C256.823 129.28 256.651 129.312 256.544 129.215Z" fill="#F2F2F2"/>
<path d="M225.25 137.209C225.25 137.209 256.334 139.583 252.034 133.279C247.734 126.976 227.138 122.222 223.569 123.961C220 125.699 225.25 137.209 225.25 137.209Z" fill="#FFC1C7"/>
<path d="M188.464 60.7862C188.464 60.7862 208.346 66.5971 199.132 85.086C199.132 85.086 184.1 117.309 190.404 119.423C196.708 121.536 225.803 120.479 225.803 120.479C225.803 120.479 232.592 138.44 229.197 138.968C225.803 139.496 171.492 151.646 165.673 140.024C159.854 128.403 165.673 78.2186 165.673 78.2186C165.673 78.2186 173.917 53.3906 188.464 60.7862Z" fill="#F6DB46"/>
</svg>
